<svg xmlns="http://www.w3.org/2000/svg" viewBox="0 0 1122 793" width="1122" height="793">
<rect x="0" y="0" width="1122" height="793" fill="#FFFFFF"/>
<defs>
  <marker id="arrow" markerWidth="11" markerHeight="11" refX="8.5" refY="4"
          orient="auto" markerUnits="userSpaceOnUse">
    <path d="M0,0 L9,4 L0,8 Z" fill="#244E6E"/>
  </marker>
  <marker id="arrowGold" markerWidth="11" markerHeight="11" refX="8.5" refY="4"
          orient="auto" markerUnits="userSpaceOnUse">
    <path d="M0,0 L9,4 L0,8 Z" fill="#B8860B"/>
  </marker>
  <pattern id="goldHatch" patternUnits="userSpaceOnUse" width="9" height="9"
           patternTransform="rotate(45)">
    <rect width="9" height="9" fill="#F7EFD9"/>
    <line x1="0" y1="0" x2="0" y2="9" stroke="#B8860B" stroke-width="0.9" stroke-opacity="0.55"/>
  </pattern>
</defs>
<g transform="translate(60,44) scale(0.52)">
  <g transform="translate(32,32) scale(1.0)">
    <path d="M 0 22 C -20 6, -28 -2, -20 -14 C -12 -22, -4 -18, 0 -10 C 4 -18, 12 -22, 20 -14 C 28 -2, 20 6, 0 22 Z"
          fill="#EAF0F5" stroke="#4D7BA0" stroke-width="1.3" stroke-linejoin="round"/>
    <path d="M -36 0 L -22 0 L -16 4 L -10 -4 L -2 -16 L 6 14 L 12 -4 L 18 0 L 36 0"
          stroke="#B8860B" stroke-width="3.4" fill="none" stroke-linecap="round" stroke-linejoin="round"/>
  </g>
</g><text x="108" y="60.0" font-family="Raleway, 'Helvetica Neue', Arial, sans-serif" font-size="19" font-weight="300" fill="#0D1B33" text-anchor="start" letter-spacing="0.5" dominant-baseline="middle"><tspan x="108" dy="0.0">Lumen Health</tspan></text><text x="108" y="77" font-family="'IBM Plex Mono', Menlo, monospace" font-size="9" letter-spacing="1.6" fill="#8895AC" text-anchor="start">DOS DADOS AOS INSIGHTS</text><text x="1062" y="58" font-family="'IBM Plex Mono', Menlo, monospace" font-size="10" letter-spacing="2.2" fill="#8895AC" text-anchor="end">FIG. 1</text><text x="1062" y="74.0" font-family="Raleway, 'Helvetica Neue', Arial, sans-serif" font-size="13" font-weight="400" fill="#244E6E" text-anchor="end" dominant-baseline="middle"><tspan x="1062" dy="0.0">Fluxo geral ponta a ponta</tspan></text><line x1="60" y1="92" x2="1062" y2="92" stroke="#E4E9F0" stroke-width="1"/>
<rect x="60" y="250" width="138" height="92" rx="2" fill="#FFFFFF" stroke="#244E6E" stroke-width="1.6"/><text x="129.0" y="287.2" font-family="Raleway, 'Helvetica Neue', Arial, sans-serif" font-size="14" font-weight="400" fill="#0D1B33" text-anchor="middle" dominant-baseline="middle"><tspan x="129.0" dy="0.0">Consentimento</tspan><tspan x="129.0" dy="17.5">e envio</tspan></text><g><circle cx="192" cy="256" r="13" fill="#B8860B"/><text x="192" y="256.5" font-family="'IBM Plex Mono', Menlo, monospace" font-size="12.5" font-weight="600" fill="#FFFFFF" text-anchor="middle" dominant-baseline="middle">10</text></g><text x="129.0" y="358.0" font-family="'IBM Plex Mono', Menlo, monospace" font-size="9.5" font-weight="400" fill="#8895AC" text-anchor="middle" dominant-baseline="middle"><tspan x="129.0" dy="0.0">humano</tspan></text><rect x="233" y="250" width="138" height="40" rx="2" fill="#FFFFFF" stroke="#244E6E" stroke-width="1.6"/><text x="302.0" y="270.0" font-family="Raleway, 'Helvetica Neue', Arial, sans-serif" font-size="12" font-weight="400" fill="#0D1B33" text-anchor="middle" dominant-baseline="middle"><tspan x="302.0" dy="0.0">Humano</tspan></text><rect x="233" y="302" width="138" height="40" rx="12" fill="url(#goldHatch)" stroke="#B8860B" stroke-width="1.6"/><text x="302.0" y="322.0" font-family="Raleway, 'Helvetica Neue', Arial, sans-serif" font-size="11" font-weight="400" fill="#0D1B33" text-anchor="middle" dominant-baseline="middle"><tspan x="302.0" dy="0.0">IA generativa</tspan></text><g><circle cx="365" cy="246" r="13" fill="#B8860B"/><text x="365" y="246.5" font-family="'IBM Plex Mono', Menlo, monospace" font-size="12.5" font-weight="600" fill="#FFFFFF" text-anchor="middle" dominant-baseline="middle">30</text></g><line x1="371" y1="270.0" x2="388" y2="296.0" stroke="#244E6E" stroke-width="1.8" marker-end="url(#arrow)"/><line x1="371" y1="322.0" x2="388" y2="296.0" stroke="#244E6E" stroke-width="1.8" marker-end="url(#arrow)"/><text x="302.0" y="358.0" font-family="'IBM Plex Mono', Menlo, monospace" font-size="9.5" font-weight="400" fill="#8895AC" text-anchor="middle" dominant-baseline="middle"><tspan x="302.0" dy="0.0">Client Services</tspan></text><text x="302.0" y="296.0" font-family="'IBM Plex Mono', Menlo, monospace" font-size="12" font-weight="400" fill="#4A5B73" text-anchor="middle" dominant-baseline="middle"><tspan x="302.0" dy="0.0">Ingestao</tspan></text><rect x="406" y="250" width="138" height="92" rx="12" fill="#F1F4F8" stroke="#244E6E" stroke-width="1.6"/><text x="475.0" y="287.2" font-family="Raleway, 'Helvetica Neue', Arial, sans-serif" font-size="14" font-weight="400" fill="#0D1B33" text-anchor="middle" dominant-baseline="middle"><tspan x="475.0" dy="0.0">Organização</tspan><tspan x="475.0" dy="17.5">em 3 dimensões</tspan></text><g><circle cx="538" cy="256" r="13" fill="#B8860B"/><text x="538" y="256.5" font-family="'IBM Plex Mono', Menlo, monospace" font-size="12.5" font-weight="600" fill="#FFFFFF" text-anchor="middle" dominant-baseline="middle">20</text></g><text x="475.0" y="358.0" font-family="'IBM Plex Mono', Menlo, monospace" font-size="9.5" font-weight="400" fill="#8895AC" text-anchor="middle" dominant-baseline="middle"><tspan x="475.0" dy="0.0">automação</tspan></text><rect x="579" y="250" width="138" height="92" rx="12" fill="#F1F4F8" stroke="#244E6E" stroke-width="1.6"/><text x="648.0" y="287.2" font-family="Raleway, 'Helvetica Neue', Arial, sans-serif" font-size="14" font-weight="400" fill="#0D1B33" text-anchor="middle" dominant-baseline="middle"><tspan x="648.0" dy="0.0">Camada de</tspan><tspan x="648.0" dy="17.5">transparência</tspan></text><g><circle cx="711" cy="256" r="13" fill="#B8860B"/><text x="711" y="256.5" font-family="'IBM Plex Mono', Menlo, monospace" font-size="12.5" font-weight="600" fill="#FFFFFF" text-anchor="middle" dominant-baseline="middle">20</text></g><text x="648.0" y="358.0" font-family="'IBM Plex Mono', Menlo, monospace" font-size="9.5" font-weight="400" fill="#8895AC" text-anchor="middle" dominant-baseline="middle"><tspan x="648.0" dy="0.0">automação</tspan></text><rect x="752" y="250" width="138" height="92" rx="12" fill="url(#goldHatch)" stroke="#B8860B" stroke-width="1.6"/><text x="821.0" y="287.2" font-family="Raleway, 'Helvetica Neue', Arial, sans-serif" font-size="14" font-weight="400" fill="#0D1B33" text-anchor="middle" dominant-baseline="middle"><tspan x="821.0" dy="0.0">Insights</tspan><tspan x="821.0" dy="17.5">por paciente</tspan></text><g><circle cx="884" cy="256" r="13" fill="#B8860B"/><text x="884" y="256.5" font-family="'IBM Plex Mono', Menlo, monospace" font-size="12.5" font-weight="600" fill="#FFFFFF" text-anchor="middle" dominant-baseline="middle">80</text></g><text x="821.0" y="358.0" font-family="'IBM Plex Mono', Menlo, monospace" font-size="9.5" font-weight="400" fill="#8895AC" text-anchor="middle" dominant-baseline="middle"><tspan x="821.0" dy="0.0">IA generativa</tspan></text><rect x="925" y="250" width="138" height="92" rx="2" fill="#FFFFFF" stroke="#244E6E" stroke-width="1.6"/><text x="994.0" y="287.2" font-family="Raleway, 'Helvetica Neue', Arial, sans-serif" font-size="14" font-weight="400" fill="#0D1B33" text-anchor="middle" dominant-baseline="middle"><tspan x="994.0" dy="0.0">Conversa</tspan><tspan x="994.0" dy="17.5">melhor</tspan></text><g><circle cx="1057" cy="256" r="13" fill="#B8860B"/><text x="1057" y="256.5" font-family="'IBM Plex Mono', Menlo, monospace" font-size="12.5" font-weight="600" fill="#FFFFFF" text-anchor="middle" dominant-baseline="middle">10</text></g><g><circle cx="1057" cy="284" r="13" fill="#B8860B"/><text x="1057" y="284.5" font-family="'IBM Plex Mono', Menlo, monospace" font-size="12.5" font-weight="600" fill="#FFFFFF" text-anchor="middle" dominant-baseline="middle">40</text></g><text x="994.0" y="358.0" font-family="'IBM Plex Mono', Menlo, monospace" font-size="9.5" font-weight="400" fill="#8895AC" text-anchor="middle" dominant-baseline="middle"><tspan x="994.0" dy="0.0">humano</tspan></text><line x1="388" y1="296.0" x2="406" y2="296.0" stroke="#244E6E" stroke-width="1.8" marker-end="url(#arrow)"/><line x1="544" y1="296.0" x2="579" y2="296.0" stroke="#244E6E" stroke-width="1.8" marker-end="url(#arrow)"/><line x1="717" y1="296.0" x2="752" y2="296.0" stroke="#244E6E" stroke-width="1.8" marker-end="url(#arrow)"/><line x1="890" y1="296.0" x2="925" y2="296.0" stroke="#244E6E" stroke-width="1.8" marker-end="url(#arrow)"/><path d="M994.0,366 L994.0,402 L129.0,402 L129.0,366" fill="none" stroke="#B8860B" stroke-width="1.8" stroke-dasharray="6 5" marker-end="url(#arrowGold)"/><text x="561.5" y="417.0" font-family="'IBM Plex Mono', Menlo, monospace" font-size="10" font-weight="400" fill="#B8860B" text-anchor="middle" dominant-baseline="middle"><tspan x="561.5" dy="0.0">ciclo continuo</tspan></text><rect x="60" y="470" width="1002" height="168" rx="12" fill="#F1F4F8" stroke="#C9D2DD" stroke-width="1"/><text x="80" y="492.0" font-family="'IBM Plex Mono', Menlo, monospace" font-size="12" font-weight="400" fill="#4A5B73" text-anchor="start" dominant-baseline="middle"><tspan x="80" dy="0.0">Legenda</tspan></text><rect x="80" y="526" width="58" height="34" rx="2" fill="#FFFFFF" stroke="#244E6E" stroke-width="1.6"/><text x="109" y="584.0" font-family="'IBM Plex Sans', 'Helvetica Neue', Arial, sans-serif" font-size="10.5" font-weight="400" fill="#4A5B73" text-anchor="middle" dominant-baseline="middle"><tspan x="109" dy="0.0">Ação humana</tspan></text><rect x="246" y="526" width="58" height="34" rx="10" fill="#FFFFFF" stroke="#244E6E" stroke-width="1.6"/><text x="275" y="584.0" font-family="'IBM Plex Sans', 'Helvetica Neue', Arial, sans-serif" font-size="10.5" font-weight="400" fill="#4A5B73" text-anchor="middle" dominant-baseline="middle"><tspan x="275" dy="0.0">Automação da plataforma</tspan></text><rect x="412" y="526" width="58" height="34" rx="10" fill="url(#goldHatch)" stroke="#B8860B" stroke-width="1.6"/><text x="441" y="584.0" font-family="'IBM Plex Sans', 'Helvetica Neue', Arial, sans-serif" font-size="10.5" font-weight="400" fill="#4A5B73" text-anchor="middle" dominant-baseline="middle"><tspan x="441" dy="0.0">Etapa de IA generativa</tspan></text><polygon points="607,524 637,543 607,562 577,543" fill="#F1F4F8" stroke="#244E6E" stroke-width="1.6"/><text x="607" y="584.0" font-family="'IBM Plex Sans', 'Helvetica Neue', Arial, sans-serif" font-size="10.5" font-weight="400" fill="#4A5B73" text-anchor="middle" dominant-baseline="middle"><tspan x="607" dy="0.0">Ponto de decisão</tspan></text><path d="M744,535 A29.0,11 0 0 1 802,535 L802,551 A29.0,11 0 0 1 744,551 Z" fill="#F1F4F8" stroke="#244E6E" stroke-width="1.6"/><path d="M744,535 A29.0,11 0 0 0 802,535" fill="none" stroke="#244E6E" stroke-width="1.6"/><text x="773.0" y="546.0" font-family="Raleway, 'Helvetica Neue', Arial, sans-serif" font-size="13" font-weight="400" fill="#0D1B33" text-anchor="middle" dominant-baseline="middle"><tspan x="773.0" dy="0.0"></tspan></text><text x="773" y="584.0" font-family="'IBM Plex Sans', 'Helvetica Neue', Arial, sans-serif" font-size="10.5" font-weight="400" fill="#4A5B73" text-anchor="middle" dominant-baseline="middle"><tspan x="773" dy="0.0">Armazenamento</tspan></text><rect x="910" y="526" width="58" height="34" rx="3" fill="#F7EFD9" stroke="#B8860B" stroke-width="2.4"/><rect x="914" y="530" width="50" height="26" rx="2" fill="none" stroke="#B8860B" stroke-width="1"/><text x="939" y="584.0" font-family="'IBM Plex Sans', 'Helvetica Neue', Arial, sans-serif" font-size="10.5" font-weight="400" fill="#4A5B73" text-anchor="middle" dominant-baseline="middle"><tspan x="939" dy="0.0">Portão de aprovação</tspan></text>
<text x="561.0" y="763" font-family="Raleway, 'Helvetica Neue', Arial, sans-serif" font-size="17" font-weight="400" fill="#0D1B33" text-anchor="middle" letter-spacing="1.5">FIG. 1</text>
</svg>
