<svg xmlns="http://www.w3.org/2000/svg" viewBox="0 0 793 1122" width="793" height="1122">
<rect x="0" y="0" width="793" height="1122" fill="#FFFFFF"/>
<defs>
  <marker id="arrow" markerWidth="11" markerHeight="11" refX="8.5" refY="4"
          orient="auto" markerUnits="userSpaceOnUse">
    <path d="M0,0 L9,4 L0,8 Z" fill="#244E6E"/>
  </marker>
  <marker id="arrowGold" markerWidth="11" markerHeight="11" refX="8.5" refY="4"
          orient="auto" markerUnits="userSpaceOnUse">
    <path d="M0,0 L9,4 L0,8 Z" fill="#B8860B"/>
  </marker>
  <pattern id="goldHatch" patternUnits="userSpaceOnUse" width="9" height="9"
           patternTransform="rotate(45)">
    <rect width="9" height="9" fill="#F7EFD9"/>
    <line x1="0" y1="0" x2="0" y2="9" stroke="#B8860B" stroke-width="0.9" stroke-opacity="0.55"/>
  </pattern>
</defs>
<g transform="translate(60,44) scale(0.52)">
  <g transform="translate(32,32) scale(1.0)">
    <path d="M 0 22 C -20 6, -28 -2, -20 -14 C -12 -22, -4 -18, 0 -10 C 4 -18, 12 -22, 20 -14 C 28 -2, 20 6, 0 22 Z"
          fill="#EAF0F5" stroke="#4D7BA0" stroke-width="1.3" stroke-linejoin="round"/>
    <path d="M -36 0 L -22 0 L -16 4 L -10 -4 L -2 -16 L 6 14 L 12 -4 L 18 0 L 36 0"
          stroke="#B8860B" stroke-width="3.4" fill="none" stroke-linecap="round" stroke-linejoin="round"/>
  </g>
</g><text x="108" y="60.0" font-family="Raleway, 'Helvetica Neue', Arial, sans-serif" font-size="19" font-weight="300" fill="#0D1B33" text-anchor="start" letter-spacing="0.5" dominant-baseline="middle"><tspan x="108" dy="0.0">Lumen Health</tspan></text><text x="108" y="77" font-family="'IBM Plex Mono', Menlo, monospace" font-size="9" letter-spacing="1.6" fill="#8895AC" text-anchor="start">DOS DADOS AOS INSIGHTS</text><text x="733" y="58" font-family="'IBM Plex Mono', Menlo, monospace" font-size="10" letter-spacing="2.2" fill="#8895AC" text-anchor="end">FIG. 2</text><text x="733" y="74.0" font-family="Raleway, 'Helvetica Neue', Arial, sans-serif" font-size="13" font-weight="400" fill="#244E6E" text-anchor="end" dominant-baseline="middle"><tspan x="733" dy="0.0">Paciente -&gt; portal</tspan></text><line x1="60" y1="92" x2="733" y2="92" stroke="#E4E9F0" stroke-width="1"/>
<rect x="280.0" y="130" width="300" height="66" rx="2" fill="#FFFFFF" stroke="#244E6E" stroke-width="1.6"/><text x="430.0" y="154.9" font-family="Raleway, 'Helvetica Neue', Arial, sans-serif" font-size="13" font-weight="400" fill="#0D1B33" text-anchor="middle" dominant-baseline="middle"><tspan x="430.0" dy="0.0">Aceitar termo de</tspan><tspan x="430.0" dy="16.2">confidencialidade</tspan></text><g><circle cx="574.0" cy="136" r="13" fill="#B8860B"/><text x="574.0" y="136.5" font-family="'IBM Plex Mono', Menlo, monospace" font-size="12.5" font-weight="600" fill="#FFFFFF" text-anchor="middle" dominant-baseline="middle">10</text></g><rect x="280.0" y="255" width="300" height="66" rx="2" fill="#FFFFFF" stroke="#244E6E" stroke-width="1.6"/><text x="430.0" y="288.0" font-family="Raleway, 'Helvetica Neue', Arial, sans-serif" font-size="13" font-weight="400" fill="#0D1B33" text-anchor="middle" dominant-baseline="middle"><tspan x="430.0" dy="0.0">Selecionar arquivos / pasta</tspan></text><rect x="280.0" y="400" width="300" height="66" rx="12" fill="#F1F4F8" stroke="#244E6E" stroke-width="1.6"/><text x="430.0" y="433.0" font-family="Raleway, 'Helvetica Neue', Arial, sans-serif" font-size="13" font-weight="400" fill="#0D1B33" text-anchor="middle" dominant-baseline="middle"><tspan x="430.0" dy="0.0">Upload via URLs assinadas</tspan></text><path d="M280.0,536 A150.0,11 0 0 1 580.0,536 L580.0,588 A150.0,11 0 0 1 280.0,588 Z" fill="#F1F4F8" stroke="#244E6E" stroke-width="1.6"/><path d="M280.0,536 A150.0,11 0 0 0 580.0,536" fill="none" stroke="#244E6E" stroke-width="1.6"/><text x="430.0" y="565.0" font-family="Raleway, 'Helvetica Neue', Arial, sans-serif" font-size="13" font-weight="400" fill="#0D1B33" text-anchor="middle" dominant-baseline="middle"><tspan x="430.0" dy="0.0">Custódia: armazenamento UE</tspan></text><g><circle cx="574.0" cy="540" r="13" fill="#B8860B"/><text x="574.0" y="540.5" font-family="'IBM Plex Mono', Menlo, monospace" font-size="12.5" font-weight="600" fill="#FFFFFF" text-anchor="middle" dominant-baseline="middle">60</text></g><rect x="280.0" y="650" width="300" height="66" rx="12" fill="#F1F4F8" stroke="#244E6E" stroke-width="1.6"/><text x="430.0" y="683.0" font-family="Raleway, 'Helvetica Neue', Arial, sans-serif" font-size="13" font-weight="400" fill="#0D1B33" text-anchor="middle" dominant-baseline="middle"><tspan x="430.0" dy="0.0">Estado: pendente de revisão</tspan></text><rect x="280.0" y="775" width="300" height="66" rx="2" fill="#FFFFFF" stroke="#244E6E" stroke-width="1.6"/><text x="430.0" y="808.0" font-family="Raleway, 'Helvetica Neue', Arial, sans-serif" font-size="13" font-weight="400" fill="#0D1B33" text-anchor="middle" dominant-baseline="middle"><tspan x="430.0" dy="0.0">Notificar Client Services</tspan></text><g><circle cx="574.0" cy="781" r="13" fill="#B8860B"/><text x="574.0" y="781.5" font-family="'IBM Plex Mono', Menlo, monospace" font-size="12.5" font-weight="600" fill="#FFFFFF" text-anchor="middle" dominant-baseline="middle">30</text></g><rect x="70" y="183" width="150" height="26" rx="13" fill="#F7EFD9" stroke="#B8860B" stroke-width="1.2"/><text x="145" y="196.0" font-family="'IBM Plex Mono', Menlo, monospace" font-size="10" font-weight="400" fill="#7C5B15" text-anchor="middle" dominant-baseline="middle"><tspan x="145" dy="0.0">qualquer formato</tspan></text><line x1="220" y1="196" x2="280.0" y2="288.0" stroke="#244E6E" stroke-width="1.8" marker-end="url(#arrow)"/><rect x="70" y="219" width="150" height="26" rx="13" fill="#F7EFD9" stroke="#B8860B" stroke-width="1.2"/><text x="145" y="232.0" font-family="'IBM Plex Mono', Menlo, monospace" font-size="10" font-weight="400" fill="#7C5B15" text-anchor="middle" dominant-baseline="middle"><tspan x="145" dy="0.0">qualquer idioma</tspan></text><line x1="220" y1="232" x2="280.0" y2="288.0" stroke="#244E6E" stroke-width="1.8" marker-end="url(#arrow)"/><rect x="70" y="255" width="150" height="26" rx="13" fill="#F7EFD9" stroke="#B8860B" stroke-width="1.2"/><text x="145" y="268.0" font-family="'IBM Plex Mono', Menlo, monospace" font-size="10" font-weight="400" fill="#7C5B15" text-anchor="middle" dominant-baseline="middle"><tspan x="145" dy="0.0">qualquer país</tspan></text><line x1="220" y1="268" x2="280.0" y2="288.0" stroke="#244E6E" stroke-width="1.8" marker-end="url(#arrow)"/><rect x="70" y="291" width="150" height="26" rx="13" fill="#F7EFD9" stroke="#B8860B" stroke-width="1.2"/><text x="145" y="304.0" font-family="'IBM Plex Mono', Menlo, monospace" font-size="10" font-weight="400" fill="#7C5B15" text-anchor="middle" dominant-baseline="middle"><tspan x="145" dy="0.0">qualquer origem</tspan></text><line x1="220" y1="304" x2="280.0" y2="288.0" stroke="#244E6E" stroke-width="1.8" marker-end="url(#arrow)"/><line x1="430" y1="196" x2="430" y2="255" stroke="#244E6E" stroke-width="1.8" marker-end="url(#arrow)"/><line x1="430" y1="321" x2="430" y2="400" stroke="#244E6E" stroke-width="1.8" marker-end="url(#arrow)"/><line x1="430" y1="466" x2="430" y2="525" stroke="#244E6E" stroke-width="1.8" marker-end="url(#arrow)"/><line x1="430" y1="599" x2="430" y2="650" stroke="#244E6E" stroke-width="1.8" marker-end="url(#arrow)"/><line x1="430" y1="716" x2="430" y2="775" stroke="#244E6E" stroke-width="1.8" marker-end="url(#arrow)"/><rect x="588" y="430" width="150" height="180" rx="12" fill="#F7EFD9" stroke="#B8860B" stroke-width="2"/><text x="663.0" y="460.0" font-family="'IBM Plex Mono', Menlo, monospace" font-size="11" font-weight="400" fill="#7C5B15" text-anchor="middle" letter-spacing="1.5" dominant-baseline="middle"><tspan x="663.0" dy="0.0">ATENÇÃO</tspan></text><text x="663.0" y="504.2" font-family="'IBM Plex Sans', 'Helvetica Neue', Arial, sans-serif" font-size="11" font-weight="400" fill="#4A5B73" text-anchor="middle" dominant-baseline="middle"><tspan x="663.0" dy="0.0">Nenhuma ingestão</tspan><tspan x="663.0" dy="15.4">nesta etapa.</tspan><tspan x="663.0" dy="15.4">Upload e ingestão</tspan><tspan x="663.0" dy="15.4">são etapas separadas</tspan><tspan x="663.0" dy="15.4">do método.</tspan></text>
<text x="396.5" y="1092" font-family="Raleway, 'Helvetica Neue', Arial, sans-serif" font-size="17" font-weight="400" fill="#0D1B33" text-anchor="middle" letter-spacing="1.5">FIG. 2</text>
</svg>
