<svg xmlns="http://www.w3.org/2000/svg" viewBox="0 0 1122 793" width="1122" height="793">
<rect x="0" y="0" width="1122" height="793" fill="#FFFFFF"/>
<defs>
  <marker id="arrow" markerWidth="11" markerHeight="11" refX="8.5" refY="4"
          orient="auto" markerUnits="userSpaceOnUse">
    <path d="M0,0 L9,4 L0,8 Z" fill="#244E6E"/>
  </marker>
  <marker id="arrowGold" markerWidth="11" markerHeight="11" refX="8.5" refY="4"
          orient="auto" markerUnits="userSpaceOnUse">
    <path d="M0,0 L9,4 L0,8 Z" fill="#B8860B"/>
  </marker>
  <pattern id="goldHatch" patternUnits="userSpaceOnUse" width="9" height="9"
           patternTransform="rotate(45)">
    <rect width="9" height="9" fill="#F7EFD9"/>
    <line x1="0" y1="0" x2="0" y2="9" stroke="#B8860B" stroke-width="0.9" stroke-opacity="0.55"/>
  </pattern>
</defs>
<g transform="translate(60,44) scale(0.52)">
  <g transform="translate(32,32) scale(1.0)">
    <path d="M 0 22 C -20 6, -28 -2, -20 -14 C -12 -22, -4 -18, 0 -10 C 4 -18, 12 -22, 20 -14 C 28 -2, 20 6, 0 22 Z"
          fill="#EAF0F5" stroke="#4D7BA0" stroke-width="1.3" stroke-linejoin="round"/>
    <path d="M -36 0 L -22 0 L -16 4 L -10 -4 L -2 -16 L 6 14 L 12 -4 L 18 0 L 36 0"
          stroke="#B8860B" stroke-width="3.4" fill="none" stroke-linecap="round" stroke-linejoin="round"/>
  </g>
</g><text x="108" y="60.0" font-family="Raleway, 'Helvetica Neue', Arial, sans-serif" font-size="19" font-weight="300" fill="#0D1B33" text-anchor="start" letter-spacing="0.5" dominant-baseline="middle"><tspan x="108" dy="0.0">Lumen Health</tspan></text><text x="108" y="77" font-family="'IBM Plex Mono', Menlo, monospace" font-size="9" letter-spacing="1.6" fill="#8895AC" text-anchor="start">DOS DADOS AOS INSIGHTS</text><text x="1062" y="58" font-family="'IBM Plex Mono', Menlo, monospace" font-size="10" letter-spacing="2.2" fill="#8895AC" text-anchor="end">FIG. 3</text><text x="1062" y="74.0" font-family="Raleway, 'Helvetica Neue', Arial, sans-serif" font-size="13" font-weight="400" fill="#244E6E" text-anchor="end" dominant-baseline="middle"><tspan x="1062" dy="0.0">Pipeline ETL</tspan></text><line x1="60" y1="92" x2="1062" y2="92" stroke="#E4E9F0" stroke-width="1"/>
<rect x="60" y="150" width="270" height="470" rx="14" fill="#FFFFFF" stroke="#C9D2DD" stroke-width="1.4"/><text x="195.0" y="174.0" font-family="'IBM Plex Mono', Menlo, monospace" font-size="13" font-weight="400" fill="#244E6E" text-anchor="middle" letter-spacing="2.0" dominant-baseline="middle"><tspan x="195.0" dy="0.0">EXTRAÇÃO</tspan></text><rect x="426" y="150" width="270" height="470" rx="14" fill="#FFFFFF" stroke="#C9D2DD" stroke-width="1.4"/><text x="561.0" y="174.0" font-family="'IBM Plex Mono', Menlo, monospace" font-size="13" font-weight="400" fill="#244E6E" text-anchor="middle" letter-spacing="2.0" dominant-baseline="middle"><tspan x="561.0" dy="0.0">TRANSFORMAÇÃO</tspan></text><rect x="792" y="150" width="270" height="470" rx="14" fill="#FFFFFF" stroke="#C9D2DD" stroke-width="1.4"/><text x="927.0" y="174.0" font-family="'IBM Plex Mono', Menlo, monospace" font-size="13" font-weight="400" fill="#244E6E" text-anchor="middle" letter-spacing="2.0" dominant-baseline="middle"><tspan x="927.0" dy="0.0">CARGA</tspan></text><rect x="80" y="196" width="230" height="92" rx="12" fill="#F1F4F8" stroke="#244E6E" stroke-width="1.6"/><text x="195.0" y="235.0" font-family="Raleway, 'Helvetica Neue', Arial, sans-serif" font-size="14" font-weight="400" fill="#0D1B33" text-anchor="middle" dominant-baseline="middle"><tspan x="195.0" dy="0.0">Portal de upload</tspan></text><text x="195.0" y="252.5" font-family="'IBM Plex Mono', Menlo, monospace" font-size="10" font-weight="400" fill="#8895AC" text-anchor="middle" dominant-baseline="middle"><tspan x="195.0" dy="0.0">(Cloudflare Pages/Workers)</tspan></text><path d="M80,325 A115.0,11 0 0 1 310,325 L310,395 A115.0,11 0 0 1 80,395 Z" fill="#F1F4F8" stroke="#244E6E" stroke-width="1.6"/><path d="M80,325 A115.0,11 0 0 0 310,325" fill="none" stroke="#244E6E" stroke-width="1.6"/><text x="195.0" y="356.7" font-family="Raleway, 'Helvetica Neue', Arial, sans-serif" font-size="13" font-weight="400" fill="#0D1B33" text-anchor="middle" dominant-baseline="middle"><tspan x="195.0" dy="0.0">Object storage, UE</tspan></text><text x="195.0" y="372.8" font-family="'IBM Plex Mono', Menlo, monospace" font-size="9" font-weight="400" fill="#8895AC" text-anchor="middle" dominant-baseline="middle"><tspan x="195.0" dy="0.0">(R2)</tspan></text><g><circle cx="304" cy="329" r="13" fill="#B8860B"/><text x="304" y="329.5" font-family="'IBM Plex Mono', Menlo, monospace" font-size="12.5" font-weight="600" fill="#FFFFFF" text-anchor="middle" dominant-baseline="middle">60</text></g><polygon points="195.0,436.0 300.0,478.0 195.0,520.0 90.0,478.0" fill="#F1F4F8" stroke="#244E6E" stroke-width="1.6"/><text x="195.0" y="470.5" font-family="Raleway, 'Helvetica Neue', Arial, sans-serif" font-size="12" font-weight="400" fill="#0D1B33" text-anchor="middle" dominant-baseline="middle"><tspan x="195.0" dy="0.0">Classificar</tspan><tspan x="195.0" dy="15.0">tipo de arquivo</tspan></text><g><circle cx="298.0" cy="448.0" r="13" fill="#B8860B"/><text x="298.0" y="448.5" font-family="'IBM Plex Mono', Menlo, monospace" font-size="12.5" font-weight="600" fill="#FFFFFF" text-anchor="middle" dominant-baseline="middle">301</text></g><line x1="195.0" y1="288" x2="195.0" y2="314" stroke="#244E6E" stroke-width="1.8" marker-end="url(#arrow)"/><line x1="195.0" y1="406" x2="195.0" y2="436.0" stroke="#244E6E" stroke-width="1.8" marker-end="url(#arrow)"/><rect x="446" y="196" width="230" height="92" rx="12" fill="#F1F4F8" stroke="#244E6E" stroke-width="1.6"/><text x="561.0" y="235.0" font-family="Raleway, 'Helvetica Neue', Arial, sans-serif" font-size="14" font-weight="400" fill="#0D1B33" text-anchor="middle" dominant-baseline="middle"><tspan x="561.0" dy="0.0">Registro de prompts</tspan></text><text x="561.0" y="252.5" font-family="'IBM Plex Mono', Menlo, monospace" font-size="10" font-weight="400" fill="#8895AC" text-anchor="middle" dominant-baseline="middle"><tspan x="561.0" dy="0.0">(lookup, determinístico)</tspan></text><g><circle cx="670" cy="202" r="13" fill="#B8860B"/><text x="670" y="202.5" font-family="'IBM Plex Mono', Menlo, monospace" font-size="12.5" font-weight="600" fill="#FFFFFF" text-anchor="middle" dominant-baseline="middle">302</text></g><rect x="446" y="314" width="230" height="92" rx="12" fill="url(#goldHatch)" stroke="#B8860B" stroke-width="1.6"/><text x="561.0" y="353.0" font-family="Raleway, 'Helvetica Neue', Arial, sans-serif" font-size="14" font-weight="400" fill="#0D1B33" text-anchor="middle" dominant-baseline="middle"><tspan x="561.0" dy="0.0">Parsing / estruturação IA</tspan></text><text x="561.0" y="370.5" font-family="'IBM Plex Mono', Menlo, monospace" font-size="10" font-weight="400" fill="#8895AC" text-anchor="middle" dominant-baseline="middle"><tspan x="561.0" dy="0.0">(Anthropic API)</tspan></text><g><circle cx="670" cy="320" r="13" fill="#B8860B"/><text x="670" y="320.5" font-family="'IBM Plex Mono', Menlo, monospace" font-size="12.5" font-weight="600" fill="#FFFFFF" text-anchor="middle" dominant-baseline="middle">303</text></g><rect x="446" y="432" width="230" height="92" rx="12" fill="#F1F4F8" stroke="#244E6E" stroke-width="1.6"/><text x="561.0" y="471.0" font-family="Raleway, 'Helvetica Neue', Arial, sans-serif" font-size="14" font-weight="400" fill="#0D1B33" text-anchor="middle" dominant-baseline="middle"><tspan x="561.0" dy="0.0">Normalização</tspan></text><text x="561.0" y="488.5" font-family="'IBM Plex Mono', Menlo, monospace" font-size="10" font-weight="400" fill="#8895AC" text-anchor="middle" dominant-baseline="middle"><tspan x="561.0" dy="0.0">(taxonomia canônica)</tspan></text><g><circle cx="670" cy="438" r="13" fill="#B8860B"/><text x="670" y="438.5" font-family="'IBM Plex Mono', Menlo, monospace" font-size="12.5" font-weight="600" fill="#FFFFFF" text-anchor="middle" dominant-baseline="middle">304</text></g><line x1="561.0" y1="288" x2="561.0" y2="314" stroke="#244E6E" stroke-width="1.8" marker-end="url(#arrow)"/><line x1="561.0" y1="406" x2="561.0" y2="432" stroke="#244E6E" stroke-width="1.8" marker-end="url(#arrow)"/><path d="M812,207 A115.0,11 0 0 1 1042,207 L1042,277 A115.0,11 0 0 1 812,277 Z" fill="#F1F4F8" stroke="#244E6E" stroke-width="1.6"/><path d="M812,207 A115.0,11 0 0 0 1042,207" fill="none" stroke="#244E6E" stroke-width="1.6"/><text x="927.0" y="238.7" font-family="Raleway, 'Helvetica Neue', Arial, sans-serif" font-size="13" font-weight="400" fill="#0D1B33" text-anchor="middle" dominant-baseline="middle"><tspan x="927.0" dy="0.0">Linhas -&gt; Postgres</tspan></text><text x="927.0" y="254.8" font-family="'IBM Plex Mono', Menlo, monospace" font-size="9" font-weight="400" fill="#8895AC" text-anchor="middle" dominant-baseline="middle"><tspan x="927.0" dy="0.0">(Neon, Frankfurt; Hyperdrive)</tspan></text><g><circle cx="1036" cy="211" r="13" fill="#B8860B"/><text x="1036" y="211.5" font-family="'IBM Plex Mono', Menlo, monospace" font-size="12.5" font-weight="600" fill="#FFFFFF" text-anchor="middle" dominant-baseline="middle">70</text></g><path d="M812,325 A115.0,11 0 0 1 1042,325 L1042,395 A115.0,11 0 0 1 812,395 Z" fill="#F1F4F8" stroke="#244E6E" stroke-width="1.6"/><path d="M812,325 A115.0,11 0 0 0 1042,325" fill="none" stroke="#244E6E" stroke-width="1.6"/><text x="927.0" y="356.7" font-family="Raleway, 'Helvetica Neue', Arial, sans-serif" font-size="13" font-weight="400" fill="#0D1B33" text-anchor="middle" dominant-baseline="middle"><tspan x="927.0" dy="0.0">Blobs permanecem (ponteiros)</tspan></text><text x="927.0" y="372.8" font-family="'IBM Plex Mono', Menlo, monospace" font-size="9" font-weight="400" fill="#8895AC" text-anchor="middle" dominant-baseline="middle"><tspan x="927.0" dy="0.0">(R2, UE)</tspan></text><g><circle cx="1036" cy="329" r="13" fill="#B8860B"/><text x="1036" y="329.5" font-family="'IBM Plex Mono', Menlo, monospace" font-size="12.5" font-weight="600" fill="#FFFFFF" text-anchor="middle" dominant-baseline="middle">60</text></g><rect x="812" y="432" width="230" height="92" rx="12" fill="#F1F4F8" stroke="#244E6E" stroke-width="1.6"/><text x="927.0" y="469.2" font-family="Raleway, 'Helvetica Neue', Arial, sans-serif" font-size="14" font-weight="400" fill="#0D1B33" text-anchor="middle" dominant-baseline="middle"><tspan x="927.0" dy="0.0">Registro unificado</tspan><tspan x="927.0" dy="17.5">publicado</tspan></text><g><circle cx="1036" cy="438" r="13" fill="#B8860B"/><text x="1036" y="438.5" font-family="'IBM Plex Mono', Menlo, monospace" font-size="12.5" font-weight="600" fill="#FFFFFF" text-anchor="middle" dominant-baseline="middle">50</text></g><line x1="927.0" y1="288" x2="927.0" y2="314" stroke="#244E6E" stroke-width="1.8" marker-end="url(#arrow)"/><line x1="927.0" y1="406" x2="927.0" y2="432" stroke="#244E6E" stroke-width="1.8" marker-end="url(#arrow)"/><line x1="330" y1="385" x2="426" y2="385" stroke="#244E6E" stroke-width="1.8" marker-end="url(#arrow)"/><rect x="706" y="355" width="76" height="60" rx="3" fill="#F7EFD9" stroke="#B8860B" stroke-width="2.6"/><rect x="710" y="359" width="68" height="52" rx="2" fill="none" stroke="#B8860B" stroke-width="1.1"/><text x="744.0" y="378.1" font-family="Raleway, 'Helvetica Neue', Arial, sans-serif" font-size="11" font-weight="400" fill="#0D1B33" text-anchor="middle" dominant-baseline="middle"><tspan x="744.0" dy="0.0">Aprovação</tspan><tspan x="744.0" dy="13.8">humana</tspan></text><g><circle cx="776" cy="361" r="13" fill="#B8860B"/><text x="776" y="361.5" font-family="'IBM Plex Mono', Menlo, monospace" font-size="12.5" font-weight="600" fill="#FFFFFF" text-anchor="middle" dominant-baseline="middle">90</text></g><line x1="696" y1="385" x2="706" y2="385" stroke="#244E6E" stroke-width="1.8" marker-end="url(#arrow)"/><line x1="782" y1="385" x2="792" y2="385" stroke="#244E6E" stroke-width="1.8" marker-end="url(#arrow)"/>
<text x="561.0" y="763" font-family="Raleway, 'Helvetica Neue', Arial, sans-serif" font-size="17" font-weight="400" fill="#0D1B33" text-anchor="middle" letter-spacing="1.5">FIG. 3</text>
</svg>
