<svg xmlns="http://www.w3.org/2000/svg" width="1754" height="1240" viewBox="0 0 1754 1240">
<rect x="0" y="0" width="1754" height="1240" fill="#FFFFFF"/>
<text x="35" y="62" font-family="Helvetica, Arial, sans-serif" font-size="32" font-weight="bold" text-anchor="start" fill="#000000">FIG. 2</text>
<text x="180" y="62" font-family="Helvetica, Arial, sans-serif" font-size="18" font-weight="normal" text-anchor="start" fill="#000000">Aprendizado incremental: cada integração torna a seguinte mais barata</text>
<rect x="430.0" y="195.0" width="380" height="110" rx="0" fill="#FFFFFF" stroke="#000000" stroke-width="1.4"/>
<text x="620.0" y="242.96" font-family="Helvetica, Arial, sans-serif" font-size="19" font-weight="normal" text-anchor="middle" fill="#000000">Documento de tipo novo</text>
<text x="620.0" y="269.96000000000004" font-family="Helvetica, Arial, sans-serif" font-size="19" font-weight="normal" text-anchor="middle" fill="#000000">(baixa confiança)</text>
<rect x="880.0" y="565.0" width="360" height="110" rx="0" fill="#FFFFFF" stroke="#000000" stroke-width="1.4"/>
<text x="1060.0" y="612.96" font-family="Helvetica, Arial, sans-serif" font-size="19" font-weight="normal" text-anchor="middle" fill="#000000">Revisão clínica</text>
<text x="1060.0" y="639.96" font-family="Helvetica, Arial, sans-serif" font-size="19" font-weight="normal" text-anchor="middle" fill="#000000">(médico)</text>
<circle cx="1180.0" cy="589.2" r="10.2" fill="#FFFFFF" stroke="#000000" stroke-width="1.4"/>
<line x1="1180.0" y1="599.4" x2="1180.0" y2="633.4" stroke="#000000" stroke-width="1.4" stroke-linecap="round"/>
<line x1="1163.0" y1="612.15" x2="1197.0" y2="612.15" stroke="#000000" stroke-width="1.4" stroke-linecap="round"/>
<line x1="1180.0" y1="633.4" x2="1166.4" y2="658.9" stroke="#000000" stroke-width="1.4" stroke-linecap="round"/>
<line x1="1180.0" y1="633.4" x2="1193.6" y2="658.9" stroke="#000000" stroke-width="1.4" stroke-linecap="round"/>
<rect x="410.0" y="925.0" width="420" height="130" rx="0" fill="#FFFFFF" stroke="#000000" stroke-width="1.4"/>
<text x="620.0" y="969.46" font-family="Helvetica, Arial, sans-serif" font-size="19" font-weight="normal" text-anchor="middle" fill="#000000">Codificação como regra</text>
<text x="620.0" y="996.46" font-family="Helvetica, Arial, sans-serif" font-size="19" font-weight="normal" text-anchor="middle" fill="#000000">versionada — determinística,</text>
<text x="620.0" y="1023.46" font-family="Helvetica, Arial, sans-serif" font-size="19" font-weight="normal" text-anchor="middle" fill="#000000">sem retreinar o modelo</text>
<rect x="10.0" y="555.0" width="340" height="130" rx="0" fill="#FFFFFF" stroke="#000000" stroke-width="1.4"/>
<text x="180.0" y="599.46" font-family="Helvetica, Arial, sans-serif" font-size="19" font-weight="normal" text-anchor="middle" fill="#000000">Ocorrências seguintes</text>
<text x="180.0" y="626.46" font-family="Helvetica, Arial, sans-serif" font-size="19" font-weight="normal" text-anchor="middle" fill="#000000">do mesmo tipo:</text>
<text x="180.0" y="653.46" font-family="Helvetica, Arial, sans-serif" font-size="19" font-weight="normal" text-anchor="middle" fill="#000000">automáticas</text>
<polyline points="685.4054054054054,305.0 994.5945945945946,565.0" fill="none" stroke="#000000" stroke-width="1.7" stroke-linejoin="miter"/>
<polygon points="994.5945945945946,565.0 981.4268877984479,560.4600112631515 987.8628871571985,552.8063904040966" fill="#000000" stroke="none"/>
<polyline points="994.5945945945946,675.0 697.2972972972973,925.0" fill="none" stroke="#000000" stroke-width="1.7" stroke-linejoin="miter"/>
<polygon points="697.2972972972973,925.0 704.0290047346933,912.8063904040966 710.465004093444,920.4600112631515" fill="#000000" stroke="none"/>
<polyline points="542.7027027027027,925.0 257.2972972972973,685.0" fill="none" stroke="#000000" stroke-width="1.7" stroke-linejoin="miter"/>
<polygon points="257.2972972972973,685.0 270.465004093444,689.5399887368485 264.02900473469333,697.1936095959034" fill="#000000" stroke="none"/>
<polyline points="257.2972972972973,555.0 554.5945945945946,305.0" fill="none" stroke="#000000" stroke-width="1.7" stroke-linejoin="miter"/>
<polygon points="554.5945945945946,305.0 547.8628871571985,317.19360959590335 541.4268877984479,309.5399887368485" fill="#000000" stroke="none"/>
<text x="365.94594594594594" y="420.0" font-family="Helvetica, Arial, sans-serif" font-size="15" font-weight="normal" text-anchor="middle" fill="#000000">cada novo tipo passa uma vez</text>
<text x="620" y="612" font-family="Helvetica, Arial, sans-serif" font-size="15" font-weight="normal" text-anchor="middle" fill="#000000">sentido do ciclo (horário)</text>
<path d="M 690 560 A 80 80 0 0 1 700 660" fill="none" stroke="#000000" stroke-width="1.3"/>
<polygon points="700,660 694.1463270739079,647.361388000483 704.1241786524739,646.6961978952452" fill="#000000" stroke="none"/>
<text x="1550" y="870" font-family="Helvetica, Arial, sans-serif" font-size="15" font-weight="normal" text-anchor="middle" fill="#000000">Revisão manual por tipo</text>
<polyline points="1420,900 1420,1060" fill="none" stroke="#000000" stroke-width="1.4" stroke-linejoin="miter"/>
<polygon points="1420,1060 1415.0,1047.0 1425.0,1047.0" fill="#000000" stroke="none"/>
<polyline points="1420,1060 1700,1060" fill="none" stroke="#000000" stroke-width="1.4" stroke-linejoin="miter"/>
<polygon points="1700,1060 1687.0,1065.0 1687.0,1055.0" fill="#000000" stroke="none"/>
<path d="M 1435 915 C 1510 930 1570 1050 1685 1052" fill="none" stroke="#000000" stroke-width="2.2"/>
<text x="1442" y="912" font-family="Helvetica, Arial, sans-serif" font-size="13" font-weight="normal" text-anchor="start" fill="#000000">100%</text>
<text x="1685" y="1040" font-family="Helvetica, Arial, sans-serif" font-size="13" font-weight="normal" text-anchor="end" fill="#000000">≈ 0%</text>
<text x="1560" y="1095" font-family="Helvetica, Arial, sans-serif" font-size="14" font-weight="normal" text-anchor="middle" fill="#000000">volume acumulado</text>
</svg>
