<svg xmlns="http://www.w3.org/2000/svg" width="1754" height="1240" viewBox="0 0 1754 1240">
<rect x="0" y="0" width="1754" height="1240" fill="#FFFFFF"/>
<text x="35" y="62" font-family="Helvetica, Arial, sans-serif" font-size="32" font-weight="bold" text-anchor="start" fill="#000000">FIG. 4</text>
<text x="180" y="62" font-family="Helvetica, Arial, sans-serif" font-size="18" font-weight="normal" text-anchor="start" fill="#000000">Validação médica como etapa do método</text>
<rect x="390.0" y="120" width="460" height="96" rx="0" fill="#FFFFFF" stroke="#000000" stroke-width="1.6"/>
<text x="620.0" y="174.46" font-family="Helvetica, Arial, sans-serif" font-size="19" font-weight="normal" text-anchor="middle" fill="#000000">Dados do paciente (desidentificados)</text>
<rect x="390.0" y="268" width="460" height="96" rx="0" fill="#FFFFFF" stroke="#000000" stroke-width="1.6"/>
<text x="620.0" y="322.46" font-family="Helvetica, Arial, sans-serif" font-size="19" font-weight="normal" text-anchor="middle" fill="#000000">Inferência clínica</text>
<rect x="390.0" y="416" width="460" height="120" rx="0" fill="#FFFFFF" stroke="#000000" stroke-width="1.8"/>
<text x="620.0" y="468.96" font-family="Helvetica, Arial, sans-serif" font-size="19" font-weight="normal" text-anchor="middle" fill="#000000">Validação médica</text>
<text x="620.0" y="495.96" font-family="Helvetica, Arial, sans-serif" font-size="19" font-weight="normal" text-anchor="middle" fill="#000000">interpretação diagnóstica do médico</text>
<circle cx="790.0" cy="442.2" r="10.2" fill="#FFFFFF" stroke="#000000" stroke-width="1.4"/>
<line x1="790.0" y1="452.4" x2="790.0" y2="486.4" stroke="#000000" stroke-width="1.4" stroke-linecap="round"/>
<line x1="773.0" y1="465.15" x2="807.0" y2="465.15" stroke="#000000" stroke-width="1.4" stroke-linecap="round"/>
<line x1="790.0" y1="486.4" x2="776.4" y2="511.9" stroke="#000000" stroke-width="1.4" stroke-linecap="round"/>
<line x1="790.0" y1="486.4" x2="803.6" y2="511.9" stroke="#000000" stroke-width="1.4" stroke-linecap="round"/>
<rect x="390.0" y="588" width="460" height="120" rx="0" fill="#FFFFFF" stroke="#000000" stroke-width="1.6"/>
<text x="620.0" y="640.96" font-family="Helvetica, Arial, sans-serif" font-size="19" font-weight="normal" text-anchor="middle" fill="#000000">Conhecimento incorporado</text>
<text x="620.0" y="667.96" font-family="Helvetica, Arial, sans-serif" font-size="19" font-weight="normal" text-anchor="middle" fill="#000000">regra versionada — determinística</text>
<rect x="390.0" y="760" width="460" height="110" rx="0" fill="#FFFFFF" stroke="#000000" stroke-width="1.6"/>
<text x="620.0" y="807.96" font-family="Helvetica, Arial, sans-serif" font-size="19" font-weight="normal" text-anchor="middle" fill="#000000">Próximo caso:</text>
<text x="620.0" y="834.96" font-family="Helvetica, Arial, sans-serif" font-size="19" font-weight="normal" text-anchor="middle" fill="#000000">inferência mais barata e mais precisa</text>
<polyline points="620,216 620,268" fill="none" stroke="#000000" stroke-width="1.7" stroke-linejoin="miter"/>
<polygon points="620,268 615.0,255.0 625.0,255.0" fill="#000000" stroke="none"/>
<polyline points="620,364 620,416" fill="none" stroke="#000000" stroke-width="1.7" stroke-linejoin="miter"/>
<polygon points="620,416 615.0,403.0 625.0,403.0" fill="#000000" stroke="none"/>
<polyline points="620,536 620,588" fill="none" stroke="#000000" stroke-width="1.7" stroke-linejoin="miter"/>
<polygon points="620,588 615.0,575.0 625.0,575.0" fill="#000000" stroke="none"/>
<polyline points="620,708 620,760" fill="none" stroke="#000000" stroke-width="1.7" stroke-linejoin="miter"/>
<polygon points="620,760 615.0,747.0 625.0,747.0" fill="#000000" stroke="none"/>
<polyline points="390.0,815.0 300,815.0 300,316.0 390.0,316.0" fill="none" stroke="#000000" stroke-width="1.7" stroke-linejoin="miter"/>
<polygon points="390.0,316.0 377.0,321.0 377.0,311.0" fill="#000000" stroke="none"/>
<text x="290" y="470" font-family="Helvetica, Arial, sans-serif" font-size="15" font-weight="normal" text-anchor="end" fill="#000000">realimenta</text>
<text x="290" y="492" font-family="Helvetica, Arial, sans-serif" font-size="15" font-weight="normal" text-anchor="end" fill="#000000">a inferência</text>
<text x="1270" y="440" font-family="Helvetica, Arial, sans-serif" font-size="16" font-weight="bold" text-anchor="middle" fill="#000000">Custo por caso</text>
<polyline points="1120,470 1120,650" fill="none" stroke="#000000" stroke-width="1.4" stroke-linejoin="miter"/>
<polygon points="1120,650 1115.0,637.0 1125.0,637.0" fill="#000000" stroke="none"/>
<polyline points="1120,650 1420,650" fill="none" stroke="#000000" stroke-width="1.4" stroke-linejoin="miter"/>
<polygon points="1420,650 1407.0,655.0 1407.0,645.0" fill="#000000" stroke="none"/>
<path d="M 1140 485 C 1230 510 1290 635 1405 640" fill="none" stroke="#000000" stroke-width="2.4"/>
<text x="1144" y="482" font-family="Helvetica, Arial, sans-serif" font-size="14" font-weight="normal" text-anchor="start" fill="#000000">alto</text>
<text x="1405" y="628" font-family="Helvetica, Arial, sans-serif" font-size="14" font-weight="normal" text-anchor="end" fill="#000000">baixo</text>
<text x="1270" y="685" font-family="Helvetica, Arial, sans-serif" font-size="14" font-weight="normal" text-anchor="middle" fill="#000000">ciclos completados</text>
<text x="1270" y="725" font-family="Helvetica, Arial, sans-serif" font-size="14" font-weight="normal" text-anchor="middle" fill="#000000">cai a cada ciclo — o modelo</text>
<text x="1270" y="747" font-family="Helvetica, Arial, sans-serif" font-size="14" font-weight="normal" text-anchor="middle" fill="#000000">de base não é retreinado</text>
</svg>
