<svg xmlns="http://www.w3.org/2000/svg" viewBox="0 0 1122 793" width="1122" height="793">
<rect x="0" y="0" width="1122" height="793" fill="#FFFFFF"/>
<defs>
  <marker id="arrow" markerWidth="11" markerHeight="11" refX="8.5" refY="4"
          orient="auto" markerUnits="userSpaceOnUse">
    <path d="M0,0 L9,4 L0,8 Z" fill="#244E6E"/>
  </marker>
  <marker id="arrowGold" markerWidth="11" markerHeight="11" refX="8.5" refY="4"
          orient="auto" markerUnits="userSpaceOnUse">
    <path d="M0,0 L9,4 L0,8 Z" fill="#B8860B"/>
  </marker>
  <pattern id="goldHatch" patternUnits="userSpaceOnUse" width="9" height="9"
           patternTransform="rotate(45)">
    <rect width="9" height="9" fill="#F7EFD9"/>
    <line x1="0" y1="0" x2="0" y2="9" stroke="#B8860B" stroke-width="0.9" stroke-opacity="0.55"/>
  </pattern>
</defs>
<g transform="translate(60,44) scale(0.52)">
  <g transform="translate(32,32) scale(1.0)">
    <path d="M 0 22 C -20 6, -28 -2, -20 -14 C -12 -22, -4 -18, 0 -10 C 4 -18, 12 -22, 20 -14 C 28 -2, 20 6, 0 22 Z"
          fill="#EAF0F5" stroke="#4D7BA0" stroke-width="1.3" stroke-linejoin="round"/>
    <path d="M -36 0 L -22 0 L -16 4 L -10 -4 L -2 -16 L 6 14 L 12 -4 L 18 0 L 36 0"
          stroke="#B8860B" stroke-width="3.4" fill="none" stroke-linecap="round" stroke-linejoin="round"/>
  </g>
</g><text x="108" y="60.0" font-family="Raleway, 'Helvetica Neue', Arial, sans-serif" font-size="19" font-weight="300" fill="#0D1B33" text-anchor="start" letter-spacing="0.5" dominant-baseline="middle"><tspan x="108" dy="0.0">Lumen Health</tspan></text><text x="108" y="77" font-family="'IBM Plex Mono', Menlo, monospace" font-size="9" letter-spacing="1.6" fill="#8895AC" text-anchor="start">FROM DATA TO INSIGHTS</text><text x="1062" y="58" font-family="'IBM Plex Mono', Menlo, monospace" font-size="10" letter-spacing="2.2" fill="#8895AC" text-anchor="end">FIG. 5</text><text x="1062" y="74.0" font-family="Raleway, 'Helvetica Neue', Arial, sans-serif" font-size="13" font-weight="400" fill="#244E6E" text-anchor="end" dominant-baseline="middle"><tspan x="1062" dy="0.0">Import job state machine</tspan></text><line x1="60" y1="92" x2="1062" y2="92" stroke="#E4E9F0" stroke-width="1"/>
<rect x="60" y="200" width="200" height="70" rx="12" fill="#F1F4F8" stroke="#244E6E" stroke-width="1.6"/><text x="160.0" y="235.0" font-family="Raleway, 'Helvetica Neue', Arial, sans-serif" font-size="12" font-weight="400" fill="#0D1B33" text-anchor="middle" dominant-baseline="middle"><tspan x="160.0" dy="0.0">Submitted</tspan></text><g><circle cx="254" cy="206" r="13" fill="#B8860B"/><text x="254" y="206.5" font-family="'IBM Plex Mono', Menlo, monospace" font-size="12.5" font-weight="600" fill="#FFFFFF" text-anchor="middle" dominant-baseline="middle">501</text></g><rect x="327" y="200" width="200" height="70" rx="12" fill="#F1F4F8" stroke="#244E6E" stroke-width="1.6"/><text x="427.0" y="235.0" font-family="Raleway, 'Helvetica Neue', Arial, sans-serif" font-size="12" font-weight="400" fill="#0D1B33" text-anchor="middle" dominant-baseline="middle"><tspan x="427.0" dy="0.0">Classified</tspan></text><g><circle cx="521" cy="206" r="13" fill="#B8860B"/><text x="521" y="206.5" font-family="'IBM Plex Mono', Menlo, monospace" font-size="12.5" font-weight="600" fill="#FFFFFF" text-anchor="middle" dominant-baseline="middle">502</text></g><rect x="594" y="200" width="200" height="70" rx="3" fill="#F7EFD9" stroke="#B8860B" stroke-width="2.6"/><rect x="598" y="204" width="192" height="62" rx="2" fill="none" stroke="#B8860B" stroke-width="1.1"/><text x="694.0" y="227.5" font-family="Raleway, 'Helvetica Neue', Arial, sans-serif" font-size="12" font-weight="400" fill="#0D1B33" text-anchor="middle" dominant-baseline="middle"><tspan x="694.0" dy="0.0">Awaiting</tspan><tspan x="694.0" dy="15.0">approval</tspan></text><g><circle cx="788" cy="206" r="13" fill="#B8860B"/><text x="788" y="206.5" font-family="'IBM Plex Mono', Menlo, monospace" font-size="12.5" font-weight="600" fill="#FFFFFF" text-anchor="middle" dominant-baseline="middle">90</text></g><rect x="861" y="200" width="200" height="70" rx="12" fill="#F1F4F8" stroke="#244E6E" stroke-width="1.6"/><text x="961.0" y="235.0" font-family="Raleway, 'Helvetica Neue', Arial, sans-serif" font-size="12" font-weight="400" fill="#0D1B33" text-anchor="middle" dominant-baseline="middle"><tspan x="961.0" dy="0.0">Ingesting</tspan></text><g><circle cx="1055" cy="206" r="13" fill="#B8860B"/><text x="1055" y="206.5" font-family="'IBM Plex Mono', Menlo, monospace" font-size="12.5" font-weight="600" fill="#FFFFFF" text-anchor="middle" dominant-baseline="middle">503</text></g><line x1="260" y1="235.0" x2="327" y2="235.0" stroke="#244E6E" stroke-width="1.8" marker-end="url(#arrow)"/><text x="293.5" y="228.0" font-family="'IBM Plex Mono', Menlo, monospace" font-size="10" font-weight="400" fill="#4A5B73" text-anchor="middle" dominant-baseline="middle"><tspan x="293.5" dy="0.0">submit</tspan></text><line x1="527" y1="235.0" x2="594" y2="235.0" stroke="#244E6E" stroke-width="1.8" marker-end="url(#arrow)"/><text x="560.5" y="228.0" font-family="'IBM Plex Mono', Menlo, monospace" font-size="10" font-weight="400" fill="#4A5B73" text-anchor="middle" dominant-baseline="middle"><tspan x="560.5" dy="0.0">approve</tspan></text><line x1="794" y1="235.0" x2="861" y2="235.0" stroke="#244E6E" stroke-width="1.8" marker-end="url(#arrow)"/><text x="827.5" y="228.0" font-family="'IBM Plex Mono', Menlo, monospace" font-size="10" font-weight="400" fill="#4A5B73" text-anchor="middle" dominant-baseline="middle"><tspan x="827.5" dy="0.0">ingest</tspan></text><rect x="861" y="430" width="200" height="70" rx="12" fill="url(#goldHatch)" stroke="#B8860B" stroke-width="1.6"/><text x="961.0" y="458.0" font-family="Raleway, 'Helvetica Neue', Arial, sans-serif" font-size="12" font-weight="400" fill="#0D1B33" text-anchor="middle" dominant-baseline="middle"><tspan x="961.0" dy="0.0">Verifying</tspan></text><text x="961.0" y="474.0" font-family="'IBM Plex Mono', Menlo, monospace" font-size="10" font-weight="400" fill="#8895AC" text-anchor="middle" dominant-baseline="middle"><tspan x="961.0" dy="0.0">(AI diff)</tspan></text><g><circle cx="1055" cy="436" r="13" fill="#B8860B"/><text x="1055" y="436.5" font-family="'IBM Plex Mono', Menlo, monospace" font-size="12.5" font-weight="600" fill="#FFFFFF" text-anchor="middle" dominant-baseline="middle">504</text></g><rect x="594" y="430" width="200" height="70" rx="3" fill="#F7EFD9" stroke="#B8860B" stroke-width="2.6"/><rect x="598" y="434" width="192" height="62" rx="2" fill="none" stroke="#B8860B" stroke-width="1.1"/><text x="694.0" y="457.5" font-family="Raleway, 'Helvetica Neue', Arial, sans-serif" font-size="12" font-weight="400" fill="#0D1B33" text-anchor="middle" dominant-baseline="middle"><tspan x="694.0" dy="0.0">Awaiting</tspan><tspan x="694.0" dy="15.0">publication</tspan></text><g><circle cx="788" cy="436" r="13" fill="#B8860B"/><text x="788" y="436.5" font-family="'IBM Plex Mono', Menlo, monospace" font-size="12.5" font-weight="600" fill="#FFFFFF" text-anchor="middle" dominant-baseline="middle">90</text></g><rect x="327" y="430" width="200" height="70" rx="12" fill="#F1F4F8" stroke="#244E6E" stroke-width="1.6"/><text x="427.0" y="465.0" font-family="Raleway, 'Helvetica Neue', Arial, sans-serif" font-size="12" font-weight="400" fill="#0D1B33" text-anchor="middle" dominant-baseline="middle"><tspan x="427.0" dy="0.0">Published</tspan></text><g><circle cx="521" cy="436" r="13" fill="#B8860B"/><text x="521" y="436.5" font-family="'IBM Plex Mono', Menlo, monospace" font-size="12.5" font-weight="600" fill="#FFFFFF" text-anchor="middle" dominant-baseline="middle">505</text></g><line x1="961.0" y1="270" x2="961.0" y2="430" stroke="#244E6E" stroke-width="1.8" marker-end="url(#arrow)"/><text x="997.0" y="350.0" font-family="'IBM Plex Mono', Menlo, monospace" font-size="10" font-weight="400" fill="#4A5B73" text-anchor="middle" dominant-baseline="middle"><tspan x="997.0" dy="0.0">verify</tspan></text><line x1="861" y1="465.0" x2="794" y2="465.0" stroke="#244E6E" stroke-width="1.8" marker-end="url(#arrow)"/><text x="827.5" y="458.0" font-family="'IBM Plex Mono', Menlo, monospace" font-size="10" font-weight="400" fill="#4A5B73" text-anchor="middle" dominant-baseline="middle"><tspan x="827.5" dy="0.0">publish</tspan></text><line x1="594" y1="465.0" x2="527" y2="465.0" stroke="#244E6E" stroke-width="1.8" marker-end="url(#arrow)"/><text x="560.5" y="458.0" font-family="'IBM Plex Mono', Menlo, monospace" font-size="10" font-weight="400" fill="#4A5B73" text-anchor="middle" dominant-baseline="middle"><tspan x="560.5" dy="0.0">OK</tspan></text><rect x="60" y="430" width="200" height="70" rx="2" fill="#FFFFFF" stroke="#244E6E" stroke-width="1.6"/><text x="160.0" y="465.0" font-family="Raleway, 'Helvetica Neue', Arial, sans-serif" font-size="12" font-weight="400" fill="#0D1B33" text-anchor="middle" dominant-baseline="middle"><tspan x="160.0" dy="0.0">Failed</tspan></text><g><circle cx="254" cy="436" r="13" fill="#B8860B"/><text x="254" y="436.5" font-family="'IBM Plex Mono', Menlo, monospace" font-size="12.5" font-weight="600" fill="#FFFFFF" text-anchor="middle" dominant-baseline="middle">506</text></g><rect x="60" y="430" width="200" height="70" rx="2" fill="#F4C5C5" fill-opacity="0.5" stroke="#9B3535" stroke-width="1.6"/><text x="160.0" y="465.0" font-family="Raleway, 'Helvetica Neue', Arial, sans-serif" font-size="13" font-weight="400" fill="#9B3535" text-anchor="middle" dominant-baseline="middle"><tspan x="160.0" dy="0.0">Failed</tspan></text><g><circle cx="254" cy="436" r="13" fill="#B8860B"/><text x="254" y="436.5" font-family="'IBM Plex Mono', Menlo, monospace" font-size="12.5" font-weight="600" fill="#FFFFFF" text-anchor="middle" dominant-baseline="middle">506</text></g><path d="M961.0,500 L961.0,545 L160.0,545 L160.0,500" fill="none" stroke="#244E6E" stroke-width="1.8" marker-end="url(#arrow)"/><text x="560.5" y="536.0" font-family="'IBM Plex Mono', Menlo, monospace" font-size="10" font-weight="400" fill="#4A5B73" text-anchor="middle" dominant-baseline="middle"><tspan x="560.5" dy="0.0">diff mismatch</tspan></text><path d="M160.0,430 L160.0,310 L427.0,310 L427.0,270" fill="none" stroke="#B8860B" stroke-width="1.8" stroke-dasharray="6 5" marker-end="url(#arrowGold)"/><text x="293.5" y="324.0" font-family="'IBM Plex Mono', Menlo, monospace" font-size="10" font-weight="400" fill="#B8860B" text-anchor="middle" dominant-baseline="middle"><tspan x="293.5" dy="0.0">retry</tspan></text>
<text x="561.0" y="763" font-family="Raleway, 'Helvetica Neue', Arial, sans-serif" font-size="17" font-weight="400" fill="#0D1B33" text-anchor="middle" letter-spacing="1.5">FIG. 5</text>
</svg>
