<svg xmlns="http://www.w3.org/2000/svg" viewBox="0 0 793 1122" width="793" height="1122">
<rect x="0" y="0" width="793" height="1122" fill="#FFFFFF"/>
<defs>
  <marker id="arrow" markerWidth="11" markerHeight="11" refX="8.5" refY="4"
          orient="auto" markerUnits="userSpaceOnUse">
    <path d="M0,0 L9,4 L0,8 Z" fill="#244E6E"/>
  </marker>
  <marker id="arrowGold" markerWidth="11" markerHeight="11" refX="8.5" refY="4"
          orient="auto" markerUnits="userSpaceOnUse">
    <path d="M0,0 L9,4 L0,8 Z" fill="#B8860B"/>
  </marker>
  <pattern id="goldHatch" patternUnits="userSpaceOnUse" width="9" height="9"
           patternTransform="rotate(45)">
    <rect width="9" height="9" fill="#F7EFD9"/>
    <line x1="0" y1="0" x2="0" y2="9" stroke="#B8860B" stroke-width="0.9" stroke-opacity="0.55"/>
  </pattern>
</defs>
<g transform="translate(60,44) scale(0.52)">
  <g transform="translate(32,32) scale(1.0)">
    <path d="M 0 22 C -20 6, -28 -2, -20 -14 C -12 -22, -4 -18, 0 -10 C 4 -18, 12 -22, 20 -14 C 28 -2, 20 6, 0 22 Z"
          fill="#EAF0F5" stroke="#4D7BA0" stroke-width="1.3" stroke-linejoin="round"/>
    <path d="M -36 0 L -22 0 L -16 4 L -10 -4 L -2 -16 L 6 14 L 12 -4 L 18 0 L 36 0"
          stroke="#B8860B" stroke-width="3.4" fill="none" stroke-linecap="round" stroke-linejoin="round"/>
  </g>
</g><text x="108" y="60.0" font-family="Raleway, 'Helvetica Neue', Arial, sans-serif" font-size="19" font-weight="300" fill="#0D1B33" text-anchor="start" letter-spacing="0.5" dominant-baseline="middle"><tspan x="108" dy="0.0">Lumen Health</tspan></text><text x="108" y="77" font-family="'IBM Plex Mono', Menlo, monospace" font-size="9" letter-spacing="1.6" fill="#8895AC" text-anchor="start">FROM DATA TO INSIGHTS</text><text x="733" y="58" font-family="'IBM Plex Mono', Menlo, monospace" font-size="10" letter-spacing="2.2" fill="#8895AC" text-anchor="end">FIG. 9</text><text x="733" y="74.0" font-family="Raleway, 'Helvetica Neue', Arial, sans-serif" font-size="13" font-weight="400" fill="#244E6E" text-anchor="end" dominant-baseline="middle"><tspan x="733" dy="0.0">Governance &amp; erasure</tspan></text><line x1="60" y1="92" x2="733" y2="92" stroke="#E4E9F0" stroke-width="1"/>
<rect x="286" y="120" width="220" height="64" rx="2" fill="#FFFFFF" stroke="#244E6E" stroke-width="1.6"/><text x="396.0" y="152.0" font-family="Raleway, 'Helvetica Neue', Arial, sans-serif" font-size="14" font-weight="400" fill="#0D1B33" text-anchor="middle" dominant-baseline="middle"><tspan x="396.0" dy="0.0">Patient</tspan></text><g><circle cx="500" cy="126" r="13" fill="#B8860B"/><text x="500" y="126.5" font-family="'IBM Plex Mono', Menlo, monospace" font-size="12.5" font-weight="600" fill="#FFFFFF" text-anchor="middle" dominant-baseline="middle">10</text></g><rect x="246" y="230" width="300" height="64" rx="2" fill="#FFFFFF" stroke="#244E6E" stroke-width="1.6"/><text x="396.0" y="262.0" font-family="Raleway, 'Helvetica Neue', Arial, sans-serif" font-size="14" font-weight="400" fill="#0D1B33" text-anchor="middle" dominant-baseline="middle"><tspan x="396.0" dy="0.0">Right to erasure</tspan></text><g><circle cx="540" cy="236" r="13" fill="#B8860B"/><text x="540" y="236.5" font-family="'IBM Plex Mono', Menlo, monospace" font-size="12.5" font-weight="600" fill="#FFFFFF" text-anchor="middle" dominant-baseline="middle">901</text></g><line x1="396" y1="184" x2="396" y2="230" stroke="#244E6E" stroke-width="1.8" marker-end="url(#arrow)"/><polygon points="396,325.0 536.0,380 396,435.0 256.0,380" fill="#F1F4F8" stroke="#244E6E" stroke-width="1.6"/><text x="396" y="380.0" font-family="Raleway, 'Helvetica Neue', Arial, sans-serif" font-size="14" font-weight="400" fill="#0D1B33" text-anchor="middle" dominant-baseline="middle"><tspan x="396" dy="0.0">Scope?</tspan></text><line x1="396" y1="294" x2="396" y2="325" stroke="#244E6E" stroke-width="1.8" marker-end="url(#arrow)"/><rect x="130" y="540" width="240" height="70" rx="2" fill="#FFFFFF" stroke="#244E6E" stroke-width="1.6"/><text x="250.0" y="568.0" font-family="Raleway, 'Helvetica Neue', Arial, sans-serif" font-size="13" font-weight="400" fill="#0D1B33" text-anchor="middle" dominant-baseline="middle"><tspan x="250.0" dy="0.0">Total erasure</tspan></text><text x="250.0" y="584.8" font-family="'IBM Plex Mono', Menlo, monospace" font-size="10" font-weight="400" fill="#8895AC" text-anchor="middle" dominant-baseline="middle"><tspan x="250.0" dy="0.0">(single action, origin-agnostic)</tspan></text><g><circle cx="364" cy="546" r="13" fill="#B8860B"/><text x="364" y="546.5" font-family="'IBM Plex Mono', Menlo, monospace" font-size="12.5" font-weight="600" fill="#FFFFFF" text-anchor="middle" dominant-baseline="middle">902</text></g><path d="M256,380 L250,380 L250,540" fill="none" stroke="#244E6E" stroke-width="1.8" marker-end="url(#arrow)"/><text x="253.0" y="372.0" font-family="'IBM Plex Mono', Menlo, monospace" font-size="10" font-weight="400" fill="#4A5B73" text-anchor="middle" dominant-baseline="middle"><tspan x="253.0" dy="0.0">total</tspan></text><path d="M120,681 A60.0,11 0 0 1 240,681 L240,725 A60.0,11 0 0 1 120,725 Z" fill="#F1F4F8" stroke="#244E6E" stroke-width="1.6"/><path d="M120,681 A60.0,11 0 0 0 240,681" fill="none" stroke="#244E6E" stroke-width="1.6"/><text x="180.0" y="699.7" font-family="Raleway, 'Helvetica Neue', Arial, sans-serif" font-size="12" font-weight="400" fill="#0D1B33" text-anchor="middle" dominant-baseline="middle"><tspan x="180.0" dy="0.0">R2</tspan></text><text x="180.0" y="715.0" font-family="'IBM Plex Mono', Menlo, monospace" font-size="9" font-weight="400" fill="#8895AC" text-anchor="middle" dominant-baseline="middle"><tspan x="180.0" dy="0.0">(EU)</tspan></text><g><circle cx="234" cy="685" r="13" fill="#B8860B"/><text x="234" y="685.5" font-family="'IBM Plex Mono', Menlo, monospace" font-size="12.5" font-weight="600" fill="#FFFFFF" text-anchor="middle" dominant-baseline="middle">60</text></g><path d="M270,681 A60.0,11 0 0 1 390,681 L390,725 A60.0,11 0 0 1 270,725 Z" fill="#F1F4F8" stroke="#244E6E" stroke-width="1.6"/><path d="M270,681 A60.0,11 0 0 0 390,681" fill="none" stroke="#244E6E" stroke-width="1.6"/><text x="330.0" y="706.0" font-family="Raleway, 'Helvetica Neue', Arial, sans-serif" font-size="12" font-weight="400" fill="#0D1B33" text-anchor="middle" dominant-baseline="middle"><tspan x="330.0" dy="0.0">Postgres</tspan></text><g><circle cx="384" cy="685" r="13" fill="#B8860B"/><text x="384" y="685.5" font-family="'IBM Plex Mono', Menlo, monospace" font-size="12.5" font-weight="600" fill="#FFFFFF" text-anchor="middle" dominant-baseline="middle">70</text></g><line x1="190" y1="610" x2="180" y2="670" stroke="#244E6E" stroke-width="1.8" marker-end="url(#arrow)"/><line x1="310" y1="610" x2="330" y2="670" stroke="#244E6E" stroke-width="1.8" marker-end="url(#arrow)"/><rect x="470" y="540" width="240" height="70" rx="2" fill="#FFFFFF" stroke="#244E6E" stroke-width="1.6"/><text x="590.0" y="568.0" font-family="Raleway, 'Helvetica Neue', Arial, sans-serif" font-size="13" font-weight="400" fill="#0D1B33" text-anchor="middle" dominant-baseline="middle"><tspan x="590.0" dy="0.0">Partial erasure</tspan></text><text x="590.0" y="584.8" font-family="'IBM Plex Mono', Menlo, monospace" font-size="10" font-weight="400" fill="#8895AC" text-anchor="middle" dominant-baseline="middle"><tspan x="590.0" dy="0.0">(via Client Services)</tspan></text><g><circle cx="704" cy="546" r="13" fill="#B8860B"/><text x="704" y="546.5" font-family="'IBM Plex Mono', Menlo, monospace" font-size="12.5" font-weight="600" fill="#FFFFFF" text-anchor="middle" dominant-baseline="middle">903</text></g><g><circle cx="704" cy="574" r="13" fill="#B8860B"/><text x="704" y="574.5" font-family="'IBM Plex Mono', Menlo, monospace" font-size="12.5" font-weight="600" fill="#FFFFFF" text-anchor="middle" dominant-baseline="middle">30</text></g><path d="M536,380 L590,380 L590,540" fill="none" stroke="#244E6E" stroke-width="1.8" marker-end="url(#arrow)"/><text x="563.0" y="372.0" font-family="'IBM Plex Mono', Menlo, monospace" font-size="10" font-weight="400" fill="#4A5B73" text-anchor="middle" dominant-baseline="middle"><tspan x="563.0" dy="0.0">partial</tspan></text><path d="M520,670 L660,670 L660,728 Q625.0,740 590.0,728 Q555.0,716 520,728 Z" fill="#FFFFFF" stroke="#244E6E" stroke-width="1.6"/><text x="590.0" y="691.5" font-family="Raleway, 'Helvetica Neue', Arial, sans-serif" font-size="12" font-weight="400" fill="#0D1B33" text-anchor="middle" dominant-baseline="middle"><tspan x="590.0" dy="0.0">Document /</tspan><tspan x="590.0" dy="15.0">exam / section</tspan></text><line x1="590" y1="610" x2="590" y2="670" stroke="#244E6E" stroke-width="1.8" marker-end="url(#arrow)"/><rect x="246" y="850" width="300" height="70" rx="12" fill="#F1F4F8" stroke="#244E6E" stroke-width="1.6"/><text x="396.0" y="878.0" font-family="Raleway, 'Helvetica Neue', Arial, sans-serif" font-size="12" font-weight="400" fill="#0D1B33" text-anchor="middle" dominant-baseline="middle"><tspan x="396.0" dy="0.0">Audit-log write</tspan></text><text x="396.0" y="894.0" font-family="'IBM Plex Mono', Menlo, monospace" font-size="10" font-weight="400" fill="#8895AC" text-anchor="middle" dominant-baseline="middle"><tspan x="396.0" dy="0.0">(on every deletion event)</tspan></text><g><circle cx="540" cy="856" r="13" fill="#B8860B"/><text x="540" y="856.5" font-family="'IBM Plex Mono', Menlo, monospace" font-size="12.5" font-weight="600" fill="#FFFFFF" text-anchor="middle" dominant-baseline="middle">904</text></g><path d="M250,736 L250,850 L356,850" fill="none" stroke="#244E6E" stroke-width="1.8" marker-end="url(#arrow)"/><path d="M590,740 L590,850 L436,850" fill="none" stroke="#244E6E" stroke-width="1.8" marker-end="url(#arrow)"/><g><circle cx="540" cy="884" r="13" fill="#B8860B"/><text x="540" y="884.5" font-family="'IBM Plex Mono', Menlo, monospace" font-size="12.5" font-weight="600" fill="#FFFFFF" text-anchor="middle" dominant-baseline="middle">70</text></g>
<text x="396.5" y="1092" font-family="Raleway, 'Helvetica Neue', Arial, sans-serif" font-size="17" font-weight="400" fill="#0D1B33" text-anchor="middle" letter-spacing="1.5">FIG. 9</text>
</svg>
