<svg xmlns="http://www.w3.org/2000/svg" viewBox="0 0 793 1122" width="793" height="1122">
<rect x="0" y="0" width="793" height="1122" fill="#FFFFFF"/>
<defs>
  <marker id="arrow" markerWidth="11" markerHeight="11" refX="8.5" refY="4"
          orient="auto" markerUnits="userSpaceOnUse">
    <path d="M0,0 L9,4 L0,8 Z" fill="#244E6E"/>
  </marker>
  <marker id="arrowGold" markerWidth="11" markerHeight="11" refX="8.5" refY="4"
          orient="auto" markerUnits="userSpaceOnUse">
    <path d="M0,0 L9,4 L0,8 Z" fill="#B8860B"/>
  </marker>
  <pattern id="goldHatch" patternUnits="userSpaceOnUse" width="9" height="9"
           patternTransform="rotate(45)">
    <rect width="9" height="9" fill="#F7EFD9"/>
    <line x1="0" y1="0" x2="0" y2="9" stroke="#B8860B" stroke-width="0.9" stroke-opacity="0.55"/>
  </pattern>
</defs>
<g transform="translate(60,44) scale(0.52)">
  <g transform="translate(32,32) scale(1.0)">
    <path d="M 0 22 C -20 6, -28 -2, -20 -14 C -12 -22, -4 -18, 0 -10 C 4 -18, 12 -22, 20 -14 C 28 -2, 20 6, 0 22 Z"
          fill="#EAF0F5" stroke="#4D7BA0" stroke-width="1.3" stroke-linejoin="round"/>
    <path d="M -36 0 L -22 0 L -16 4 L -10 -4 L -2 -16 L 6 14 L 12 -4 L 18 0 L 36 0"
          stroke="#B8860B" stroke-width="3.4" fill="none" stroke-linecap="round" stroke-linejoin="round"/>
  </g>
</g><text x="108" y="60.0" font-family="Raleway, 'Helvetica Neue', Arial, sans-serif" font-size="19" font-weight="300" fill="#0D1B33" text-anchor="start" letter-spacing="0.5" dominant-baseline="middle"><tspan x="108" dy="0.0">Lumen Health</tspan></text><text x="108" y="77" font-family="'IBM Plex Mono', Menlo, monospace" font-size="9" letter-spacing="1.6" fill="#8895AC" text-anchor="start">FROM DATA TO INSIGHTS</text><text x="733" y="58" font-family="'IBM Plex Mono', Menlo, monospace" font-size="10" letter-spacing="2.2" fill="#8895AC" text-anchor="end">FIG. 4</text><text x="733" y="74.0" font-family="Raleway, 'Helvetica Neue', Arial, sans-serif" font-size="13" font-weight="400" fill="#244E6E" text-anchor="end" dominant-baseline="middle"><tspan x="733" dy="0.0">Classification &amp; prompt registry</tspan></text><line x1="60" y1="92" x2="733" y2="92" stroke="#E4E9F0" stroke-width="1"/>
<path d="M276.0,120 L516.0,120 L516.0,184 Q456.0,196 396.0,184 Q336.0,172 276.0,184 Z" fill="#FFFFFF" stroke="#244E6E" stroke-width="1.6"/><text x="396.0" y="152.0" font-family="Raleway, 'Helvetica Neue', Arial, sans-serif" font-size="12" font-weight="400" fill="#0D1B33" text-anchor="middle" dominant-baseline="middle"><tspan x="396.0" dy="0.0">File received</tspan></text><g><circle cx="510.0" cy="126" r="13" fill="#B8860B"/><text x="510.0" y="126.5" font-family="'IBM Plex Mono', Menlo, monospace" font-size="12.5" font-weight="600" fill="#FFFFFF" text-anchor="middle" dominant-baseline="middle">401</text></g><rect x="231.0" y="235" width="330" height="74" rx="12" fill="url(#goldHatch)" stroke="#B8860B" stroke-width="1.6"/><text x="396.0" y="265.0" font-family="Raleway, 'Helvetica Neue', Arial, sans-serif" font-size="14" font-weight="400" fill="#0D1B33" text-anchor="middle" dominant-baseline="middle"><tspan x="396.0" dy="0.0">Classifier</tspan></text><text x="396.0" y="282.5" font-family="'IBM Plex Mono', Menlo, monospace" font-size="10" font-weight="400" fill="#8895AC" text-anchor="middle" dominant-baseline="middle"><tspan x="396.0" dy="0.0">(generative AI)</tspan></text><g><circle cx="555.0" cy="241" r="13" fill="#B8860B"/><text x="555.0" y="241.5" font-family="'IBM Plex Mono', Menlo, monospace" font-size="12.5" font-weight="600" fill="#FFFFFF" text-anchor="middle" dominant-baseline="middle">402</text></g><rect x="231.0" y="345" width="330" height="84" rx="12" fill="#F1F4F8" stroke="#244E6E" stroke-width="1.6"/><text x="396.0" y="379.5" font-family="Raleway, 'Helvetica Neue', Arial, sans-serif" font-size="12" font-weight="400" fill="#0D1B33" text-anchor="middle" dominant-baseline="middle"><tspan x="396.0" dy="0.0">Structured output</tspan><tspan x="396.0" dy="15.0">{type, language, render class}</tspan></text><g><circle cx="555.0" cy="351" r="13" fill="#B8860B"/><text x="555.0" y="351.5" font-family="'IBM Plex Mono', Menlo, monospace" font-size="12.5" font-weight="600" fill="#FFFFFF" text-anchor="middle" dominant-baseline="middle">403</text></g><rect x="231.0" y="465" width="330" height="74" rx="12" fill="#F1F4F8" stroke="#244E6E" stroke-width="1.6"/><text x="396.0" y="487.5" font-family="Raleway, 'Helvetica Neue', Arial, sans-serif" font-size="12" font-weight="400" fill="#0D1B33" text-anchor="middle" dominant-baseline="middle"><tspan x="396.0" dy="0.0">Registry lookup</tspan><tspan x="396.0" dy="15.0">type -&gt; prompt</tspan></text><text x="396.0" y="511.0" font-family="'IBM Plex Mono', Menlo, monospace" font-size="10" font-weight="400" fill="#8895AC" text-anchor="middle" dominant-baseline="middle"><tspan x="396.0" dy="0.0">(deterministic table)</tspan></text><g><circle cx="555.0" cy="471" r="13" fill="#B8860B"/><text x="555.0" y="471.5" font-family="'IBM Plex Mono', Menlo, monospace" font-size="12.5" font-weight="600" fill="#FFFFFF" text-anchor="middle" dominant-baseline="middle">404</text></g><polygon points="396,575.0 536.0,640 396,705.0 256.0,640" fill="#F1F4F8" stroke="#244E6E" stroke-width="1.6"/><text x="396" y="632.5" font-family="Raleway, 'Helvetica Neue', Arial, sans-serif" font-size="12" font-weight="400" fill="#0D1B33" text-anchor="middle" dominant-baseline="middle"><tspan x="396" dy="0.0">Render class</tspan><tspan x="396" dy="15.0">= standard?</tspan></text><g><circle cx="534.0" cy="587.0" r="13" fill="#B8860B"/><text x="534.0" y="587.5" font-family="'IBM Plex Mono', Menlo, monospace" font-size="12.5" font-weight="600" fill="#FFFFFF" text-anchor="middle" dominant-baseline="middle">405</text></g><line x1="396" y1="196" x2="396" y2="235" stroke="#244E6E" stroke-width="1.8" marker-end="url(#arrow)"/><line x1="396" y1="309" x2="396" y2="345" stroke="#244E6E" stroke-width="1.8" marker-end="url(#arrow)"/><line x1="396" y1="429" x2="396" y2="465" stroke="#244E6E" stroke-width="1.8" marker-end="url(#arrow)"/><line x1="396" y1="539" x2="396" y2="575" stroke="#244E6E" stroke-width="1.8" marker-end="url(#arrow)"/><rect x="80" y="604" width="140" height="72" rx="3" fill="#F7EFD9" stroke="#B8860B" stroke-width="2.6"/><rect x="84" y="608" width="132" height="64" rx="2" fill="none" stroke="#B8860B" stroke-width="1.1"/><text x="150.0" y="632.5" font-family="Raleway, 'Helvetica Neue', Arial, sans-serif" font-size="12" font-weight="400" fill="#0D1B33" text-anchor="middle" dominant-baseline="middle"><tspan x="150.0" dy="0.0">Forward to</tspan><tspan x="150.0" dy="15.0">human review</tspan></text><g><circle cx="214" cy="610" r="13" fill="#B8860B"/><text x="214" y="610.5" font-family="'IBM Plex Mono', Menlo, monospace" font-size="12.5" font-weight="600" fill="#FFFFFF" text-anchor="middle" dominant-baseline="middle">90</text></g><line x1="256" y1="640" x2="220" y2="640" stroke="#244E6E" stroke-width="1.8" marker-end="url(#arrow)"/><text x="238.0" y="633.0" font-family="'IBM Plex Mono', Menlo, monospace" font-size="10" font-weight="400" fill="#4A5B73" text-anchor="middle" dominant-baseline="middle"><tspan x="238.0" dy="0.0">non-standard</tspan></text><line x1="396" y1="705" x2="396" y2="790" stroke="#244E6E" stroke-width="1.8" marker-end="url(#arrow)"/><text x="424.0" y="747.5" font-family="'IBM Plex Mono', Menlo, monospace" font-size="10" font-weight="400" fill="#4A5B73" text-anchor="middle" dominant-baseline="middle"><tspan x="424.0" dy="0.0">standard</tspan></text><rect x="231.0" y="790" width="330" height="70" rx="12" fill="#F1F4F8" stroke="#244E6E" stroke-width="1.6"/><text x="396.0" y="817.5" font-family="Raleway, 'Helvetica Neue', Arial, sans-serif" font-size="12" font-weight="400" fill="#0D1B33" text-anchor="middle" dominant-baseline="middle"><tspan x="396.0" dy="0.0">Ingestion fan-out</tspan><tspan x="396.0" dy="15.0">(1 job per detected type)</tspan></text><g><circle cx="555.0" cy="796" r="13" fill="#B8860B"/><text x="555.0" y="796.5" font-family="'IBM Plex Mono', Menlo, monospace" font-size="12.5" font-weight="600" fill="#FFFFFF" text-anchor="middle" dominant-baseline="middle">406</text></g><rect x="95.0" y="905" width="190" height="56" rx="12" fill="#F1F4F8" stroke="#244E6E" stroke-width="1.6"/><text x="190.0" y="933.0" font-family="Raleway, 'Helvetica Neue', Arial, sans-serif" font-size="12" font-weight="400" fill="#0D1B33" text-anchor="middle" dominant-baseline="middle"><tspan x="190.0" dy="0.0">Job: labs</tspan></text><line x1="396" y1="860" x2="190.0" y2="905" stroke="#244E6E" stroke-width="1.8" marker-end="url(#arrow)"/><rect x="301.0" y="905" width="190" height="56" rx="12" fill="#F1F4F8" stroke="#244E6E" stroke-width="1.6"/><text x="396.0" y="933.0" font-family="Raleway, 'Helvetica Neue', Arial, sans-serif" font-size="12" font-weight="400" fill="#0D1B33" text-anchor="middle" dominant-baseline="middle"><tspan x="396.0" dy="0.0">Job: imaging</tspan></text><line x1="396" y1="860" x2="396.0" y2="905" stroke="#244E6E" stroke-width="1.8" marker-end="url(#arrow)"/><rect x="507.0" y="905" width="190" height="56" rx="12" fill="#F1F4F8" stroke="#244E6E" stroke-width="1.6"/><text x="602.0" y="933.0" font-family="Raleway, 'Helvetica Neue', Arial, sans-serif" font-size="12" font-weight="400" fill="#0D1B33" text-anchor="middle" dominant-baseline="middle"><tspan x="602.0" dy="0.0">Job: ECG</tspan></text><line x1="396" y1="860" x2="602.0" y2="905" stroke="#244E6E" stroke-width="1.8" marker-end="url(#arrow)"/>
<text x="396.5" y="1092" font-family="Raleway, 'Helvetica Neue', Arial, sans-serif" font-size="17" font-weight="400" fill="#0D1B33" text-anchor="middle" letter-spacing="1.5">FIG. 4</text>
</svg>
