<svg xmlns="http://www.w3.org/2000/svg" viewBox="0 0 793 1122" width="793" height="1122">
<rect x="0" y="0" width="793" height="1122" fill="#FFFFFF"/>
<defs>
  <marker id="arrow" markerWidth="11" markerHeight="11" refX="8.5" refY="4"
          orient="auto" markerUnits="userSpaceOnUse">
    <path d="M0,0 L9,4 L0,8 Z" fill="#244E6E"/>
  </marker>
  <marker id="arrowGold" markerWidth="11" markerHeight="11" refX="8.5" refY="4"
          orient="auto" markerUnits="userSpaceOnUse">
    <path d="M0,0 L9,4 L0,8 Z" fill="#B8860B"/>
  </marker>
  <pattern id="goldHatch" patternUnits="userSpaceOnUse" width="9" height="9"
           patternTransform="rotate(45)">
    <rect width="9" height="9" fill="#F7EFD9"/>
    <line x1="0" y1="0" x2="0" y2="9" stroke="#B8860B" stroke-width="0.9" stroke-opacity="0.55"/>
  </pattern>
</defs>
<g transform="translate(60,44) scale(0.52)">
  <g transform="translate(32,32) scale(1.0)">
    <path d="M 0 22 C -20 6, -28 -2, -20 -14 C -12 -22, -4 -18, 0 -10 C 4 -18, 12 -22, 20 -14 C 28 -2, 20 6, 0 22 Z"
          fill="#EAF0F5" stroke="#4D7BA0" stroke-width="1.3" stroke-linejoin="round"/>
    <path d="M -36 0 L -22 0 L -16 4 L -10 -4 L -2 -16 L 6 14 L 12 -4 L 18 0 L 36 0"
          stroke="#B8860B" stroke-width="3.4" fill="none" stroke-linecap="round" stroke-linejoin="round"/>
  </g>
</g><text x="108" y="60.0" font-family="Raleway, 'Helvetica Neue', Arial, sans-serif" font-size="19" font-weight="300" fill="#0D1B33" text-anchor="start" letter-spacing="0.5" dominant-baseline="middle"><tspan x="108" dy="0.0">Lumen Health</tspan></text><text x="108" y="77" font-family="'IBM Plex Mono', Menlo, monospace" font-size="9" letter-spacing="1.6" fill="#8895AC" text-anchor="start">FROM DATA TO INSIGHTS</text><text x="733" y="58" font-family="'IBM Plex Mono', Menlo, monospace" font-size="10" letter-spacing="2.2" fill="#8895AC" text-anchor="end">FIG. 7</text><text x="733" y="74.0" font-family="Raleway, 'Helvetica Neue', Arial, sans-serif" font-size="13" font-weight="400" fill="#244E6E" text-anchor="end" dominant-baseline="middle"><tspan x="733" dy="0.0">One record, two views</tspan></text><line x1="60" y1="92" x2="733" y2="92" stroke="#E4E9F0" stroke-width="1"/>
<rect x="55" y="150" width="683" height="640" rx="16" fill="none" stroke="#B8860B" stroke-width="2.6" stroke-dasharray="3 0"/><text x="396" y="178.0" font-family="'IBM Plex Mono', Menlo, monospace" font-size="10.5" font-weight="400" fill="#B8860B" text-anchor="middle" letter-spacing="1.2" dominant-baseline="middle"><tspan x="396" dy="0.0">Claimed-method boundary</tspan></text><path d="M266,241 A130.0,11 0 0 1 526,241 L526,299 A130.0,11 0 0 1 266,299 Z" fill="#F1F4F8" stroke="#244E6E" stroke-width="1.6"/><path d="M266,241 A130.0,11 0 0 0 526,241" fill="none" stroke="#244E6E" stroke-width="1.6"/><text x="396.0" y="273.0" font-family="Raleway, 'Helvetica Neue', Arial, sans-serif" font-size="13" font-weight="400" fill="#0D1B33" text-anchor="middle" dominant-baseline="middle"><tspan x="396.0" dy="0.0">Single record</tspan></text><g><circle cx="520" cy="245" r="13" fill="#B8860B"/><text x="520" y="245.5" font-family="'IBM Plex Mono', Menlo, monospace" font-size="12.5" font-weight="600" fill="#FFFFFF" text-anchor="middle" dominant-baseline="middle">50</text></g><rect x="90" y="470" width="280" height="250" rx="12" fill="#F1F4F8" stroke="#244E6E" stroke-width="1.6"/><text x="230.0" y="595.0" font-family="Raleway, 'Helvetica Neue', Arial, sans-serif" font-size="14" font-weight="400" fill="#0D1B33" text-anchor="middle" dominant-baseline="middle"><tspan x="230.0" dy="0.0"></tspan></text><text x="230" y="500.0" font-family="Raleway, 'Helvetica Neue', Arial, sans-serif" font-size="15" font-weight="400" fill="#244E6E" text-anchor="middle" dominant-baseline="middle"><tspan x="230" dy="0.0">Patient view</tspan></text><g><circle cx="364" cy="476" r="13" fill="#B8860B"/><text x="364" y="476.5" font-family="'IBM Plex Mono', Menlo, monospace" font-size="12.5" font-weight="600" fill="#FFFFFF" text-anchor="middle" dominant-baseline="middle">701</text></g><text x="230" y="574.6" font-family="'IBM Plex Sans', 'Helvetica Neue', Arial, sans-serif" font-size="12" font-weight="400" fill="#4A5B73" text-anchor="middle" dominant-baseline="middle"><tspan x="230" dy="0.0">- Plain-language summary</tspan><tspan x="230" dy="20.4">- Status seals</tspan><tspan x="230" dy="20.4">- Bilingual toggle</tspan></text><rect x="422" y="470" width="280" height="250" rx="12" fill="#F1F4F8" stroke="#244E6E" stroke-width="1.6"/><text x="562.0" y="595.0" font-family="Raleway, 'Helvetica Neue', Arial, sans-serif" font-size="14" font-weight="400" fill="#0D1B33" text-anchor="middle" dominant-baseline="middle"><tspan x="562.0" dy="0.0"></tspan></text><text x="562" y="500.0" font-family="Raleway, 'Helvetica Neue', Arial, sans-serif" font-size="15" font-weight="400" fill="#244E6E" text-anchor="middle" dominant-baseline="middle"><tspan x="562" dy="0.0">Physician view</tspan></text><g><circle cx="696" cy="476" r="13" fill="#B8860B"/><text x="696" y="476.5" font-family="'IBM Plex Mono', Menlo, monospace" font-size="12.5" font-weight="600" fill="#FFFFFF" text-anchor="middle" dominant-baseline="middle">702</text></g><g><circle cx="696" cy="504" r="13" fill="#B8860B"/><text x="696" y="504.5" font-family="'IBM Plex Mono', Menlo, monospace" font-size="12.5" font-weight="600" fill="#FFFFFF" text-anchor="middle" dominant-baseline="middle">40</text></g><text x="562" y="574.6" font-family="'IBM Plex Sans', 'Helvetica Neue', Arial, sans-serif" font-size="12" font-weight="400" fill="#4A5B73" text-anchor="middle" dominant-baseline="middle"><tspan x="562" dy="0.0">- Trends and values</tspan><tspan x="562" dy="20.4">- Reference ranges</tspan><tspan x="562" dy="20.4">- Source documents 1 click away</tspan></text><line x1="336" y1="310" x2="230" y2="470" stroke="#244E6E" stroke-width="1.8" marker-end="url(#arrow)"/><text x="283.0" y="383.0" font-family="'IBM Plex Mono', Menlo, monospace" font-size="10" font-weight="400" fill="#4A5B73" text-anchor="middle" dominant-baseline="middle"><tspan x="283.0" dy="0.0">reads</tspan></text><line x1="456" y1="310" x2="562" y2="470" stroke="#244E6E" stroke-width="1.8" marker-end="url(#arrow)"/><text x="509.0" y="383.0" font-family="'IBM Plex Mono', Menlo, monospace" font-size="10" font-weight="400" fill="#4A5B73" text-anchor="middle" dominant-baseline="middle"><tspan x="509.0" dy="0.0">reads</tspan></text><text x="396" y="745.0" font-family="'IBM Plex Mono', Menlo, monospace" font-size="12" font-weight="400" fill="#8895AC" text-anchor="middle" dominant-baseline="middle"><tspan x="396" dy="0.0">Same source, two readings</tspan></text>
<text x="396.5" y="1092" font-family="Raleway, 'Helvetica Neue', Arial, sans-serif" font-size="17" font-weight="400" fill="#0D1B33" text-anchor="middle" letter-spacing="1.5">FIG. 7</text>
</svg>
