<svg xmlns="http://www.w3.org/2000/svg" viewBox="0 0 793 1122" width="793" height="1122">
<rect x="0" y="0" width="793" height="1122" fill="#FFFFFF"/>
<defs>
  <marker id="arrow" markerWidth="11" markerHeight="11" refX="8.5" refY="4"
          orient="auto" markerUnits="userSpaceOnUse">
    <path d="M0,0 L9,4 L0,8 Z" fill="#244E6E"/>
  </marker>
  <marker id="arrowGold" markerWidth="11" markerHeight="11" refX="8.5" refY="4"
          orient="auto" markerUnits="userSpaceOnUse">
    <path d="M0,0 L9,4 L0,8 Z" fill="#B8860B"/>
  </marker>
  <pattern id="goldHatch" patternUnits="userSpaceOnUse" width="9" height="9"
           patternTransform="rotate(45)">
    <rect width="9" height="9" fill="#F7EFD9"/>
    <line x1="0" y1="0" x2="0" y2="9" stroke="#B8860B" stroke-width="0.9" stroke-opacity="0.55"/>
  </pattern>
</defs>
<g transform="translate(60,44) scale(0.52)">
  <g transform="translate(32,32) scale(1.0)">
    <path d="M 0 22 C -20 6, -28 -2, -20 -14 C -12 -22, -4 -18, 0 -10 C 4 -18, 12 -22, 20 -14 C 28 -2, 20 6, 0 22 Z"
          fill="#EAF0F5" stroke="#4D7BA0" stroke-width="1.3" stroke-linejoin="round"/>
    <path d="M -36 0 L -22 0 L -16 4 L -10 -4 L -2 -16 L 6 14 L 12 -4 L 18 0 L 36 0"
          stroke="#B8860B" stroke-width="3.4" fill="none" stroke-linecap="round" stroke-linejoin="round"/>
  </g>
</g><text x="108" y="60.0" font-family="Raleway, 'Helvetica Neue', Arial, sans-serif" font-size="19" font-weight="300" fill="#0D1B33" text-anchor="start" letter-spacing="0.5" dominant-baseline="middle"><tspan x="108" dy="0.0">Lumen Health</tspan></text><text x="108" y="77" font-family="'IBM Plex Mono', Menlo, monospace" font-size="9" letter-spacing="1.6" fill="#8895AC" text-anchor="start">FROM DATA TO INSIGHTS</text><text x="733" y="58" font-family="'IBM Plex Mono', Menlo, monospace" font-size="10" letter-spacing="2.2" fill="#8895AC" text-anchor="end">FIG. 6</text><text x="733" y="74.0" font-family="Raleway, 'Helvetica Neue', Arial, sans-serif" font-size="13" font-weight="400" fill="#244E6E" text-anchor="end" dominant-baseline="middle"><tspan x="733" dy="0.0">Three-dimension organization</tspan></text><line x1="60" y1="92" x2="733" y2="92" stroke="#E4E9F0" stroke-width="1"/>
<path d="M246,131 A150.0,11 0 0 1 546,131 L546,185 A150.0,11 0 0 1 246,185 Z" fill="#F1F4F8" stroke="#244E6E" stroke-width="1.6"/><path d="M246,131 A150.0,11 0 0 0 546,131" fill="none" stroke="#244E6E" stroke-width="1.6"/><text x="396.0" y="161.0" font-family="Raleway, 'Helvetica Neue', Arial, sans-serif" font-size="13" font-weight="400" fill="#0D1B33" text-anchor="middle" dominant-baseline="middle"><tspan x="396.0" dy="0.0">Unified record</tspan></text><g><circle cx="540" cy="135" r="13" fill="#B8860B"/><text x="540" y="135.5" font-family="'IBM Plex Mono', Menlo, monospace" font-size="12.5" font-weight="600" fill="#FFFFFF" text-anchor="middle" dominant-baseline="middle">50</text></g><rect x="226" y="250" width="340" height="74" rx="12" fill="#F1F4F8" stroke="#244E6E" stroke-width="1.6"/><text x="396.0" y="280.0" font-family="Raleway, 'Helvetica Neue', Arial, sans-serif" font-size="12" font-weight="400" fill="#0D1B33" text-anchor="middle" dominant-baseline="middle"><tspan x="396.0" dy="0.0">Mapping to canonical taxonomy</tspan></text><text x="396.0" y="296.0" font-family="'IBM Plex Mono', Menlo, monospace" font-size="10" font-weight="400" fill="#8895AC" text-anchor="middle" dominant-baseline="middle"><tspan x="396.0" dy="0.0">(deterministic)</tspan></text><g><circle cx="560" cy="256" r="13" fill="#B8860B"/><text x="560" y="256.5" font-family="'IBM Plex Mono', Menlo, monospace" font-size="12.5" font-weight="600" fill="#FFFFFF" text-anchor="middle" dominant-baseline="middle">601</text></g><line x1="396" y1="196" x2="396" y2="250" stroke="#244E6E" stroke-width="1.8" marker-end="url(#arrow)"/><rect x="60" y="410" width="200" height="76" rx="12" fill="#F1F4F8" stroke="#244E6E" stroke-width="1.6"/><text x="160.0" y="448.0" font-family="Raleway, 'Helvetica Neue', Arial, sans-serif" font-size="14" font-weight="400" fill="#0D1B33" text-anchor="middle" dominant-baseline="middle"><tspan x="160.0" dy="0.0">Physical</tspan></text><g><circle cx="254" cy="416" r="13" fill="#B8860B"/><text x="254" y="416.5" font-family="'IBM Plex Mono', Menlo, monospace" font-size="12.5" font-weight="600" fill="#FFFFFF" text-anchor="middle" dominant-baseline="middle">602</text></g><line x1="396" y1="324" x2="160.0" y2="410" stroke="#244E6E" stroke-width="1.8" marker-end="url(#arrow)"/><rect x="296" y="410" width="200" height="76" rx="12" fill="#F1F4F8" stroke="#244E6E" stroke-width="1.6"/><text x="396.0" y="448.0" font-family="Raleway, 'Helvetica Neue', Arial, sans-serif" font-size="14" font-weight="400" fill="#0D1B33" text-anchor="middle" dominant-baseline="middle"><tspan x="396.0" dy="0.0">Mental</tspan></text><g><circle cx="490" cy="416" r="13" fill="#B8860B"/><text x="490" y="416.5" font-family="'IBM Plex Mono', Menlo, monospace" font-size="12.5" font-weight="600" fill="#FFFFFF" text-anchor="middle" dominant-baseline="middle">603</text></g><line x1="396" y1="324" x2="396.0" y2="410" stroke="#244E6E" stroke-width="1.8" marker-end="url(#arrow)"/><rect x="532" y="410" width="200" height="76" rx="12" fill="#F1F4F8" stroke="#244E6E" stroke-width="1.6"/><text x="632.0" y="448.0" font-family="Raleway, 'Helvetica Neue', Arial, sans-serif" font-size="14" font-weight="400" fill="#0D1B33" text-anchor="middle" dominant-baseline="middle"><tspan x="632.0" dy="0.0">Spiritual</tspan></text><g><circle cx="726" cy="416" r="13" fill="#B8860B"/><text x="726" y="416.5" font-family="'IBM Plex Mono', Menlo, monospace" font-size="12.5" font-weight="600" fill="#FFFFFF" text-anchor="middle" dominant-baseline="middle">604</text></g><line x1="396" y1="324" x2="632.0" y2="410" stroke="#244E6E" stroke-width="1.8" marker-end="url(#arrow)"/><rect x="96.0" y="600" width="180" height="66" rx="12" fill="#F1F4F8" stroke="#244E6E" stroke-width="1.6"/><text x="186.0" y="633.0" font-family="Raleway, 'Helvetica Neue', Arial, sans-serif" font-size="13" font-weight="400" fill="#0D1B33" text-anchor="middle" dominant-baseline="middle"><tspan x="186.0" dy="0.0">Vitals</tspan></text><g><circle cx="270.0" cy="606" r="13" fill="#B8860B"/><text x="270.0" y="606.5" font-family="'IBM Plex Mono', Menlo, monospace" font-size="12.5" font-weight="600" fill="#FFFFFF" text-anchor="middle" dominant-baseline="middle">605</text></g><line x1="160.0" y1="486" x2="186.0" y2="600" stroke="#244E6E" stroke-width="1.8" marker-end="url(#arrow)"/><rect x="306.0" y="600" width="180" height="66" rx="12" fill="#F1F4F8" stroke="#244E6E" stroke-width="1.6"/><text x="396.0" y="633.0" font-family="Raleway, 'Helvetica Neue', Arial, sans-serif" font-size="13" font-weight="400" fill="#0D1B33" text-anchor="middle" dominant-baseline="middle"><tspan x="396.0" dy="0.0">Exams</tspan></text><g><circle cx="480.0" cy="606" r="13" fill="#B8860B"/><text x="480.0" y="606.5" font-family="'IBM Plex Mono', Menlo, monospace" font-size="12.5" font-weight="600" fill="#FFFFFF" text-anchor="middle" dominant-baseline="middle">606</text></g><line x1="160.0" y1="486" x2="396.0" y2="600" stroke="#244E6E" stroke-width="1.8" marker-end="url(#arrow)"/><rect x="516.0" y="600" width="180" height="66" rx="12" fill="#F1F4F8" stroke="#244E6E" stroke-width="1.6"/><text x="606.0" y="633.0" font-family="Raleway, 'Helvetica Neue', Arial, sans-serif" font-size="13" font-weight="400" fill="#0D1B33" text-anchor="middle" dominant-baseline="middle"><tspan x="606.0" dy="0.0">Genetics</tspan></text><g><circle cx="690.0" cy="606" r="13" fill="#B8860B"/><text x="690.0" y="606.5" font-family="'IBM Plex Mono', Menlo, monospace" font-size="12.5" font-weight="600" fill="#FFFFFF" text-anchor="middle" dominant-baseline="middle">607</text></g><line x1="160.0" y1="486" x2="606.0" y2="600" stroke="#244E6E" stroke-width="1.8" marker-end="url(#arrow)"/>
<text x="396.5" y="1092" font-family="Raleway, 'Helvetica Neue', Arial, sans-serif" font-size="17" font-weight="400" fill="#0D1B33" text-anchor="middle" letter-spacing="1.5">FIG. 6</text>
</svg>
